<?xml version="1.0" encoding="UTF-8" standalone="no"?><svg xmlns="http://www.w3.org/2000/svg" xmlns:xlink="http://www.w3.org/1999/xlink" contentScriptType="application/ecmascript" contentStyleType="text/css" height="552px" preserveAspectRatio="none" style="width:403px;height:552px;" version="1.1" viewBox="0 0 403 552" width="403px" zoomAndPan="magnify"><defs><filter height="300%" id="fkfg78c6s1zjs" width="300%" x="-1" y="-1"><feGaussianBlur result="blurOut" stdDeviation="2.0"/><feColorMatrix in="blurOut" result="blurOut2" type="matrix" values="0 0 0 0 0 0 0 0 0 0 0 0 0 0 0 0 0 0 .4 0"/><feOffset dx="4.0" dy="4.0" in="blurOut2" result="blurOut3"/><feBlend in="SourceGraphic" in2="blurOut3" mode="normal"/></filter></defs><g><rect codeLine="1" fill="#FEFECE" filter="url(#fkfg78c6s1zjs)" height="99.2188" id="Pizza" style="stroke:#A80036;stroke-width:1.5;" width="96" x="150" y="439"/><ellipse cx="180.75" cy="455" fill="#ADD1B2" rx="11" ry="11" style="stroke:#A80036;stroke-width:1.0;"/><path d="M183.7188,460.6406 Q183.1406,460.9375 182.5,461.0859 Q181.8594,461.2344 181.1563,461.2344 Q178.6563,461.2344 177.3359,459.5859 Q176.0156,457.9375 176.0156,454.8125 Q176.0156,451.6875 177.3359,450.0313 Q178.6563,448.375 181.1563,448.375 Q181.8594,448.375 182.5078,448.5313 Q183.1563,448.6875 183.7188,448.9844 L183.7188,451.7031 Q183.0938,451.125 182.5,450.8516 Q181.9063,450.5781 181.2813,450.5781 Q179.9375,450.5781 179.25,451.6484 Q178.5625,452.7188 178.5625,454.8125 Q178.5625,456.9063 179.25,457.9766 Q179.9375,459.0469 181.2813,459.0469 Q181.9063,459.0469 182.5,458.7734 Q183.0938,458.5 183.7188,457.9219 L183.7188,460.6406 Z " fill="#000000"/><text fill="#000000" font-family="sans-serif" font-size="12" lengthAdjust="spacing" textLength="29" x="198.25" y="459.1543">Pizza</text><line style="stroke:#A80036;stroke-width:1.5;" x1="151" x2="245" y1="471" y2="471"/><line style="stroke:#A80036;stroke-width:1.5;" x1="151" x2="245" y1="479" y2="479"/><text fill="#000000" font-family="sans-serif" font-size="11" lengthAdjust="spacing" textLength="84" x="156" y="493.2104">prepare(): void</text><text fill="#000000" font-family="sans-serif" font-size="11" lengthAdjust="spacing" textLength="66" x="156" y="506.0151">bake(): void</text><text fill="#000000" font-family="sans-serif" font-size="11" lengthAdjust="spacing" textLength="56" x="156" y="518.8198">cut(): void</text><text fill="#000000" font-family="sans-serif" font-size="11" lengthAdjust="spacing" textLength="59" x="156" y="531.6245">box(): void</text><rect codeLine="7" fill="#FEFECE" filter="url(#fkfg78c6s1zjs)" height="48" id="CheesePizza" style="stroke:#A80036;stroke-width:1.5;" width="108" x="75" y="331"/><ellipse cx="90" cy="347" fill="#ADD1B2" rx="11" ry="11" style="stroke:#A80036;stroke-width:1.0;"/><path d="M92.9688,352.6406 Q92.3906,352.9375 91.75,353.0859 Q91.1094,353.2344 90.4063,353.2344 Q87.9063,353.2344 86.5859,351.5859 Q85.2656,349.9375 85.2656,346.8125 Q85.2656,343.6875 86.5859,342.0313 Q87.9063,340.375 90.4063,340.375 Q91.1094,340.375 91.7578,340.5313 Q92.4063,340.6875 92.9688,340.9844 L92.9688,343.7031 Q92.3438,343.125 91.75,342.8516 Q91.1563,342.5781 90.5313,342.5781 Q89.1875,342.5781 88.5,343.6484 Q87.8125,344.7188 87.8125,346.8125 Q87.8125,348.9063 88.5,349.9766 Q89.1875,351.0469 90.5313,351.0469 Q91.1563,351.0469 91.75,350.7734 Q92.3438,350.5 92.9688,349.9219 L92.9688,352.6406 Z " fill="#000000"/><text fill="#000000" font-family="sans-serif" font-size="12" lengthAdjust="spacing" textLength="76" x="104" y="351.1543">CheesePizza</text><line style="stroke:#A80036;stroke-width:1.5;" x1="76" x2="182" y1="363" y2="363"/><line style="stroke:#A80036;stroke-width:1.5;" x1="76" x2="182" y1="371" y2="371"/><rect codeLine="9" fill="#FEFECE" filter="url(#fkfg78c6s1zjs)" height="48" id="GreekPizza" style="stroke:#A80036;stroke-width:1.5;" width="98" x="218" y="331"/><ellipse cx="233" cy="347" fill="#ADD1B2" rx="11" ry="11" style="stroke:#A80036;stroke-width:1.0;"/><path d="M235.9688,352.6406 Q235.3906,352.9375 234.75,353.0859 Q234.1094,353.2344 233.4063,353.2344 Q230.9063,353.2344 229.5859,351.5859 Q228.2656,349.9375 228.2656,346.8125 Q228.2656,343.6875 229.5859,342.0313 Q230.9063,340.375 233.4063,340.375 Q234.1094,340.375 234.7578,340.5313 Q235.4063,340.6875 235.9688,340.9844 L235.9688,343.7031 Q235.3438,343.125 234.75,342.8516 Q234.1563,342.5781 233.5313,342.5781 Q232.1875,342.5781 231.5,343.6484 Q230.8125,344.7188 230.8125,346.8125 Q230.8125,348.9063 231.5,349.9766 Q232.1875,351.0469 233.5313,351.0469 Q234.1563,351.0469 234.75,350.7734 Q235.3438,350.5 235.9688,349.9219 L235.9688,352.6406 Z " fill="#000000"/><text fill="#000000" font-family="sans-serif" font-size="12" lengthAdjust="spacing" textLength="66" x="247" y="351.1543">GreekPizza</text><line style="stroke:#A80036;stroke-width:1.5;" x1="219" x2="315" y1="363" y2="363"/><line style="stroke:#A80036;stroke-width:1.5;" x1="219" x2="315" y1="371" y2="371"/><rect codeLine="11" fill="#FEFECE" filter="url(#fkfg78c6s1zjs)" height="48" id="OrderPizza1" style="stroke:#A80036;stroke-width:1.5;" width="104" x="7" y="115"/><ellipse cx="22" cy="131" fill="#ADD1B2" rx="11" ry="11" style="stroke:#A80036;stroke-width:1.0;"/><path d="M24.9688,136.6406 Q24.3906,136.9375 23.75,137.0859 Q23.1094,137.2344 22.4063,137.2344 Q19.9063,137.2344 18.5859,135.5859 Q17.2656,133.9375 17.2656,130.8125 Q17.2656,127.6875 18.5859,126.0313 Q19.9063,124.375 22.4063,124.375 Q23.1094,124.375 23.7578,124.5313 Q24.4063,124.6875 24.9688,124.9844 L24.9688,127.7031 Q24.3438,127.125 23.75,126.8516 Q23.1563,126.5781 22.5313,126.5781 Q21.1875,126.5781 20.5,127.6484 Q19.8125,128.7188 19.8125,130.8125 Q19.8125,132.9063 20.5,133.9766 Q21.1875,135.0469 22.5313,135.0469 Q23.1563,135.0469 23.75,134.7734 Q24.3438,134.5 24.9688,133.9219 L24.9688,136.6406 Z " fill="#000000"/><text fill="#000000" font-family="sans-serif" font-size="12" lengthAdjust="spacing" textLength="72" x="36" y="135.1543">OrderPizza1</text><line style="stroke:#A80036;stroke-width:1.5;" x1="8" x2="110" y1="147" y2="147"/><line style="stroke:#A80036;stroke-width:1.5;" x1="8" x2="110" y1="155" y2="155"/><rect codeLine="12" fill="#FEFECE" filter="url(#fkfg78c6s1zjs)" height="48" id="OrderPizza2" style="stroke:#A80036;stroke-width:1.5;" width="104" x="146" y="115"/><ellipse cx="161" cy="131" fill="#ADD1B2" rx="11" ry="11" style="stroke:#A80036;stroke-width:1.0;"/><path d="M163.9688,136.6406 Q163.3906,136.9375 162.75,137.0859 Q162.1094,137.2344 161.4063,137.2344 Q158.9063,137.2344 157.5859,135.5859 Q156.2656,133.9375 156.2656,130.8125 Q156.2656,127.6875 157.5859,126.0313 Q158.9063,124.375 161.4063,124.375 Q162.1094,124.375 162.7578,124.5313 Q163.4063,124.6875 163.9688,124.9844 L163.9688,127.7031 Q163.3438,127.125 162.75,126.8516 Q162.1563,126.5781 161.5313,126.5781 Q160.1875,126.5781 159.5,127.6484 Q158.8125,128.7188 158.8125,130.8125 Q158.8125,132.9063 159.5,133.9766 Q160.1875,135.0469 161.5313,135.0469 Q162.1563,135.0469 162.75,134.7734 Q163.3438,134.5 163.9688,133.9219 L163.9688,136.6406 Z " fill="#000000"/><text fill="#000000" font-family="sans-serif" font-size="12" lengthAdjust="spacing" textLength="72" x="175" y="135.1543">OrderPizza2</text><line style="stroke:#A80036;stroke-width:1.5;" x1="147" x2="249" y1="147" y2="147"/><line style="stroke:#A80036;stroke-width:1.5;" x1="147" x2="249" y1="155" y2="155"/><rect codeLine="13" fill="#FEFECE" filter="url(#fkfg78c6s1zjs)" height="48" id="OrderPizza3" style="stroke:#A80036;stroke-width:1.5;" width="104" x="285" y="115"/><ellipse cx="300" cy="131" fill="#ADD1B2" rx="11" ry="11" style="stroke:#A80036;stroke-width:1.0;"/><path d="M302.9688,136.6406 Q302.3906,136.9375 301.75,137.0859 Q301.1094,137.2344 300.4063,137.2344 Q297.9063,137.2344 296.5859,135.5859 Q295.2656,133.9375 295.2656,130.8125 Q295.2656,127.6875 296.5859,126.0313 Q297.9063,124.375 300.4063,124.375 Q301.1094,124.375 301.7578,124.5313 Q302.4063,124.6875 302.9688,124.9844 L302.9688,127.7031 Q302.3438,127.125 301.75,126.8516 Q301.1563,126.5781 300.5313,126.5781 Q299.1875,126.5781 298.5,127.6484 Q297.8125,128.7188 297.8125,130.8125 Q297.8125,132.9063 298.5,133.9766 Q299.1875,135.0469 300.5313,135.0469 Q301.1563,135.0469 301.75,134.7734 Q302.3438,134.5 302.9688,133.9219 L302.9688,136.6406 Z " fill="#000000"/><text fill="#000000" font-family="sans-serif" font-size="12" lengthAdjust="spacing" textLength="72" x="314" y="135.1543">OrderPizza3</text><line style="stroke:#A80036;stroke-width:1.5;" x1="286" x2="388" y1="147" y2="147"/><line style="stroke:#A80036;stroke-width:1.5;" x1="286" x2="388" y1="155" y2="155"/><rect codeLine="14" fill="#FEFECE" filter="url(#fkfg78c6s1zjs)" height="48" id="PizzaStore" style="stroke:#A80036;stroke-width:1.5;" width="95" x="11.5" y="7"/><ellipse cx="26.5" cy="23" fill="#ADD1B2" rx="11" ry="11" style="stroke:#A80036;stroke-width:1.0;"/><path d="M29.4688,28.6406 Q28.8906,28.9375 28.25,29.0859 Q27.6094,29.2344 26.9063,29.2344 Q24.4063,29.2344 23.0859,27.5859 Q21.7656,25.9375 21.7656,22.8125 Q21.7656,19.6875 23.0859,18.0313 Q24.4063,16.375 26.9063,16.375 Q27.6094,16.375 28.2578,16.5313 Q28.9063,16.6875 29.4688,16.9844 L29.4688,19.7031 Q28.8438,19.125 28.25,18.8516 Q27.6563,18.5781 27.0313,18.5781 Q25.6875,18.5781 25,19.6484 Q24.3125,20.7188 24.3125,22.8125 Q24.3125,24.9063 25,25.9766 Q25.6875,27.0469 27.0313,27.0469 Q27.6563,27.0469 28.25,26.7734 Q28.8438,26.5 29.4688,25.9219 L29.4688,28.6406 Z " fill="#000000"/><text fill="#000000" font-family="sans-serif" font-size="12" lengthAdjust="spacing" textLength="63" x="40.5" y="27.1543">PizzaStore</text><line style="stroke:#A80036;stroke-width:1.5;" x1="12.5" x2="105.5" y1="39" y2="39"/><line style="stroke:#A80036;stroke-width:1.5;" x1="12.5" x2="105.5" y1="47" y2="47"/><rect fill="#FEFECE" filter="url(#fkfg78c6s1zjs)" height="48" id="SimpleFactory" style="stroke:#A80036;stroke-width:1.5;" width="119" x="138.5" y="223"/><ellipse cx="153.5" cy="239" fill="#ADD1B2" rx="11" ry="11" style="stroke:#A80036;stroke-width:1.0;"/><path d="M156.4688,244.6406 Q155.8906,244.9375 155.25,245.0859 Q154.6094,245.2344 153.9063,245.2344 Q151.4063,245.2344 150.0859,243.5859 Q148.7656,241.9375 148.7656,238.8125 Q148.7656,235.6875 150.0859,234.0313 Q151.4063,232.375 153.9063,232.375 Q154.6094,232.375 155.2578,232.5313 Q155.9063,232.6875 156.4688,232.9844 L156.4688,235.7031 Q155.8438,235.125 155.25,234.8516 Q154.6563,234.5781 154.0313,234.5781 Q152.6875,234.5781 152,235.6484 Q151.3125,236.7188 151.3125,238.8125 Q151.3125,240.9063 152,241.9766 Q152.6875,243.0469 154.0313,243.0469 Q154.6563,243.0469 155.25,242.7734 Q155.8438,242.5 156.4688,241.9219 L156.4688,244.6406 Z " fill="#000000"/><text fill="#000000" font-family="sans-serif" font-size="12" lengthAdjust="spacing" textLength="87" x="167.5" y="243.1543">SimpleFactory</text><line style="stroke:#A80036;stroke-width:1.5;" x1="139.5" x2="256.5" y1="255" y2="255"/><line style="stroke:#A80036;stroke-width:1.5;" x1="139.5" x2="256.5" y1="263" y2="263"/><path codeLine="16" d="M141.4954,379.1758 C147.5971,390.9814 155.275,405.8364 162.987,420.7575 " fill="none" id="CheesePizza-to-Pizza" style="stroke:#A80036;stroke-width:1.0;stroke-dasharray:7.0,7.0;"/><polygon fill="none" points="169.3428,417.809,172.3073,438.7903,156.9057,424.2372,169.3428,417.809" style="stroke:#A80036;stroke-width:1.0;"/><path codeLine="17" d="M254.5046,379.1758 C248.4029,390.9814 240.725,405.8364 233.013,420.7575 " fill="none" id="GreekPizza-to-Pizza" style="stroke:#A80036;stroke-width:1.0;stroke-dasharray:7.0,7.0;"/><polygon fill="none" points="239.0943,424.2372,223.6927,438.7903,226.6572,417.809,239.0943,424.2372" style="stroke:#A80036;stroke-width:1.0;"/><path codeLine="18" d="M90.1943,163.2373 C111.7452,179.9819 140.4422,202.2788 162.81,219.6582 " fill="none" id="OrderPizza1-to-SimpleFactory" style="stroke:#A80036;stroke-width:1.0;stroke-dasharray:7.0,7.0;"/><polygon fill="#A80036" points="166.9098,222.8436,162.257,214.1631,162.9615,219.7759,157.3487,220.4803,166.9098,222.8436" style="stroke:#A80036;stroke-width:1.0;"/><path codeLine="19" d="M198,163.2373 C198,179.3565 198,200.6212 198,217.6911 " fill="none" id="OrderPizza2-to-SimpleFactory" style="stroke:#A80036;stroke-width:1.0;stroke-dasharray:7.0,7.0;"/><polygon fill="#A80036" points="198,222.8436,202,213.8436,198,217.8436,194,213.8436,198,222.8436" style="stroke:#A80036;stroke-width:1.0;"/><path codeLine="20" d="M305.8057,163.2373 C284.2548,179.9819 255.5578,202.2788 233.19,219.6582 " fill="none" id="OrderPizza3-to-SimpleFactory" style="stroke:#A80036;stroke-width:1.0;stroke-dasharray:7.0,7.0;"/><polygon fill="#A80036" points="229.0902,222.8436,238.6513,220.4803,233.0385,219.7759,233.743,214.1631,229.0902,222.8436" style="stroke:#A80036;stroke-width:1.0;"/><path codeLine="21" d="M182.5151,271.2373 C172.0391,287.6345 158.1614,309.356 147.1635,326.5702 " fill="none" id="SimpleFactory-to-CheesePizza" style="stroke:#A80036;stroke-width:1.0;stroke-dasharray:7.0,7.0;"/><polygon fill="#A80036" points="144.4333,330.8436,152.6496,325.4129,147.1252,326.6301,145.908,321.1058,144.4333,330.8436" style="stroke:#A80036;stroke-width:1.0;"/><path codeLine="22" d="M213.4849,271.2373 C223.9609,287.6345 237.8386,309.356 248.8365,326.5702 " fill="none" id="SimpleFactory-to-GreekPizza" style="stroke:#A80036;stroke-width:1.0;stroke-dasharray:7.0,7.0;"/><polygon fill="#A80036" points="251.5667,330.8436,250.092,321.1058,248.8748,326.6301,243.3504,325.4129,251.5667,330.8436" style="stroke:#A80036;stroke-width:1.0;"/><path codeLine="23" d="M59,55.2373 C59,71.3565 59,92.6212 59,109.6911 " fill="none" id="PizzaStore-to-OrderPizza1" style="stroke:#A80036;stroke-width:1.0;stroke-dasharray:7.0,7.0;"/><polygon fill="#A80036" points="59,114.8436,63,105.8436,59,109.8436,55,105.8436,59,114.8436" style="stroke:#A80036;stroke-width:1.0;"/></g></svg>