<?xml version="1.0" encoding="UTF-8" standalone="no"?><svg xmlns="http://www.w3.org/2000/svg" xmlns:xlink="http://www.w3.org/1999/xlink" contentScriptType="application/ecmascript" contentStyleType="text/css" height="444px" preserveAspectRatio="none" style="width:286px;height:444px;" version="1.1" viewBox="0 0 286 444" width="286px" zoomAndPan="magnify"><defs><filter height="300%" id="f1sn8shv0abtnv" width="300%" x="-1" y="-1"><feGaussianBlur result="blurOut" stdDeviation="2.0"/><feColorMatrix in="blurOut" result="blurOut2" type="matrix" values="0 0 0 0 0 0 0 0 0 0 0 0 0 0 0 0 0 0 .4 0"/><feOffset dx="4.0" dy="4.0" in="blurOut2" result="blurOut3"/><feBlend in="SourceGraphic" in2="blurOut3" mode="normal"/></filter></defs><g><rect codeLine="1" fill="#FEFECE" filter="url(#f1sn8shv0abtnv)" height="99.2188" id="Pizza" style="stroke:#A80036;stroke-width:1.5;" width="96" x="37.4016" y="331"/><ellipse cx="68.1516" cy="347" fill="#ADD1B2" rx="11" ry="11" style="stroke:#A80036;stroke-width:1.0;"/><path d="M71.1204,352.6406 Q70.5422,352.9375 69.9016,353.0859 Q69.261,353.2344 68.5579,353.2344 Q66.0579,353.2344 64.7375,351.5859 Q63.4172,349.9375 63.4172,346.8125 Q63.4172,343.6875 64.7375,342.0313 Q66.0579,340.375 68.5579,340.375 Q69.261,340.375 69.9094,340.5313 Q70.5579,340.6875 71.1204,340.9844 L71.1204,343.7031 Q70.4954,343.125 69.9016,342.8516 Q69.3079,342.5781 68.6829,342.5781 Q67.3391,342.5781 66.6516,343.6484 Q65.9641,344.7188 65.9641,346.8125 Q65.9641,348.9063 66.6516,349.9766 Q67.3391,351.0469 68.6829,351.0469 Q69.3079,351.0469 69.9016,350.7734 Q70.4954,350.5 71.1204,349.9219 L71.1204,352.6406 Z " fill="#000000"/><text fill="#000000" font-family="sans-serif" font-size="12" lengthAdjust="spacing" textLength="29" x="85.6516" y="351.1543">Pizza</text><line style="stroke:#A80036;stroke-width:1.5;" x1="38.4016" x2="132.4016" y1="363" y2="363"/><line style="stroke:#A80036;stroke-width:1.5;" x1="38.4016" x2="132.4016" y1="371" y2="371"/><text fill="#000000" font-family="sans-serif" font-size="11" lengthAdjust="spacing" textLength="84" x="43.4016" y="385.2104">prepare(): void</text><text fill="#000000" font-family="sans-serif" font-size="11" lengthAdjust="spacing" textLength="66" x="43.4016" y="398.0151">bake(): void</text><text fill="#000000" font-family="sans-serif" font-size="11" lengthAdjust="spacing" textLength="56" x="43.4016" y="410.8198">cut(): void</text><text fill="#000000" font-family="sans-serif" font-size="11" lengthAdjust="spacing" textLength="59" x="43.4016" y="423.6245">box(): void</text><rect codeLine="7" fill="#FEFECE" filter="url(#f1sn8shv0abtnv)" height="48" id="CheesePizza" style="stroke:#A80036;stroke-width:1.5;" width="108" x="31.4016" y="223"/><ellipse cx="46.4016" cy="239" fill="#ADD1B2" rx="11" ry="11" style="stroke:#A80036;stroke-width:1.0;"/><path d="M49.3704,244.6406 Q48.7922,244.9375 48.1516,245.0859 Q47.511,245.2344 46.8079,245.2344 Q44.3079,245.2344 42.9875,243.5859 Q41.6672,241.9375 41.6672,238.8125 Q41.6672,235.6875 42.9875,234.0313 Q44.3079,232.375 46.8079,232.375 Q47.511,232.375 48.1594,232.5313 Q48.8079,232.6875 49.3704,232.9844 L49.3704,235.7031 Q48.7454,235.125 48.1516,234.8516 Q47.5579,234.5781 46.9329,234.5781 Q45.5891,234.5781 44.9016,235.6484 Q44.2141,236.7188 44.2141,238.8125 Q44.2141,240.9063 44.9016,241.9766 Q45.5891,243.0469 46.9329,243.0469 Q47.5579,243.0469 48.1516,242.7734 Q48.7454,242.5 49.3704,241.9219 L49.3704,244.6406 Z " fill="#000000"/><text fill="#000000" font-family="sans-serif" font-size="12" lengthAdjust="spacing" textLength="76" x="60.4016" y="243.1543">CheesePizza</text><line style="stroke:#A80036;stroke-width:1.5;" x1="32.4016" x2="138.4016" y1="255" y2="255"/><line style="stroke:#A80036;stroke-width:1.5;" x1="32.4016" x2="138.4016" y1="263" y2="263"/><rect codeLine="9" fill="#FEFECE" filter="url(#f1sn8shv0abtnv)" height="48" id="GreekPizza" style="stroke:#A80036;stroke-width:1.5;" width="98" x="174.4016" y="223"/><ellipse cx="189.4016" cy="239" fill="#ADD1B2" rx="11" ry="11" style="stroke:#A80036;stroke-width:1.0;"/><path d="M192.3704,244.6406 Q191.7922,244.9375 191.1516,245.0859 Q190.511,245.2344 189.8079,245.2344 Q187.3079,245.2344 185.9875,243.5859 Q184.6672,241.9375 184.6672,238.8125 Q184.6672,235.6875 185.9875,234.0313 Q187.3079,232.375 189.8079,232.375 Q190.511,232.375 191.1594,232.5313 Q191.8079,232.6875 192.3704,232.9844 L192.3704,235.7031 Q191.7454,235.125 191.1516,234.8516 Q190.5579,234.5781 189.9329,234.5781 Q188.5891,234.5781 187.9016,235.6484 Q187.2141,236.7188 187.2141,238.8125 Q187.2141,240.9063 187.9016,241.9766 Q188.5891,243.0469 189.9329,243.0469 Q190.5579,243.0469 191.1516,242.7734 Q191.7454,242.5 192.3704,241.9219 L192.3704,244.6406 Z " fill="#000000"/><text fill="#000000" font-family="sans-serif" font-size="12" lengthAdjust="spacing" textLength="66" x="203.4016" y="243.1543">GreekPizza</text><line style="stroke:#A80036;stroke-width:1.5;" x1="175.4016" x2="271.4016" y1="255" y2="255"/><line style="stroke:#A80036;stroke-width:1.5;" x1="175.4016" x2="271.4016" y1="263" y2="263"/><rect codeLine="11" fill="#FEFECE" filter="url(#f1sn8shv0abtnv)" height="48" id="OrderPizza" style="stroke:#A80036;stroke-width:1.5;" width="96" x="37.4016" y="115"/><ellipse cx="52.4016" cy="131" fill="#ADD1B2" rx="11" ry="11" style="stroke:#A80036;stroke-width:1.0;"/><path d="M55.3704,136.6406 Q54.7922,136.9375 54.1516,137.0859 Q53.511,137.2344 52.8079,137.2344 Q50.3079,137.2344 48.9875,135.5859 Q47.6672,133.9375 47.6672,130.8125 Q47.6672,127.6875 48.9875,126.0313 Q50.3079,124.375 52.8079,124.375 Q53.511,124.375 54.1594,124.5313 Q54.8079,124.6875 55.3704,124.9844 L55.3704,127.7031 Q54.7454,127.125 54.1516,126.8516 Q53.5579,126.5781 52.9329,126.5781 Q51.5891,126.5781 50.9016,127.6484 Q50.2141,128.7188 50.2141,130.8125 Q50.2141,132.9063 50.9016,133.9766 Q51.5891,135.0469 52.9329,135.0469 Q53.5579,135.0469 54.1516,134.7734 Q54.7454,134.5 55.3704,133.9219 L55.3704,136.6406 Z " fill="#000000"/><text fill="#000000" font-family="sans-serif" font-size="12" lengthAdjust="spacing" textLength="64" x="66.4016" y="135.1543">OrderPizza</text><line style="stroke:#A80036;stroke-width:1.5;" x1="38.4016" x2="132.4016" y1="147" y2="147"/><line style="stroke:#A80036;stroke-width:1.5;" x1="38.4016" x2="132.4016" y1="155" y2="155"/><rect codeLine="12" fill="#FEFECE" filter="url(#f1sn8shv0abtnv)" height="48" id="PizzaStore" style="stroke:#A80036;stroke-width:1.5;" width="95" x="37.9016" y="7"/><ellipse cx="52.9016" cy="23" fill="#ADD1B2" rx="11" ry="11" style="stroke:#A80036;stroke-width:1.0;"/><path d="M55.8704,28.6406 Q55.2922,28.9375 54.6516,29.0859 Q54.011,29.2344 53.3079,29.2344 Q50.8079,29.2344 49.4875,27.5859 Q48.1672,25.9375 48.1672,22.8125 Q48.1672,19.6875 49.4875,18.0313 Q50.8079,16.375 53.3079,16.375 Q54.011,16.375 54.6594,16.5313 Q55.3079,16.6875 55.8704,16.9844 L55.8704,19.7031 Q55.2454,19.125 54.6516,18.8516 Q54.0579,18.5781 53.4329,18.5781 Q52.0891,18.5781 51.4016,19.6484 Q50.7141,20.7188 50.7141,22.8125 Q50.7141,24.9063 51.4016,25.9766 Q52.0891,27.0469 53.4329,27.0469 Q54.0579,27.0469 54.6516,26.7734 Q55.2454,26.5 55.8704,25.9219 L55.8704,28.6406 Z " fill="#000000"/><text fill="#000000" font-family="sans-serif" font-size="12" lengthAdjust="spacing" textLength="63" x="66.9016" y="27.1543">PizzaStore</text><line style="stroke:#A80036;stroke-width:1.5;" x1="38.9016" x2="131.9016" y1="39" y2="39"/><line style="stroke:#A80036;stroke-width:1.5;" x1="38.9016" x2="131.9016" y1="47" y2="47"/><path codeLine="14" d="M85.4016,271.1758 C85.4016,282.3328 85.4016,296.2132 85.4016,310.2991 " fill="none" id="CheesePizza-to-Pizza" style="stroke:#A80036;stroke-width:1.0;stroke-dasharray:7.0,7.0;"/><polygon fill="none" points="92.4017,310.7903,85.4016,330.7903,78.4017,310.7902,92.4017,310.7903" style="stroke:#A80036;stroke-width:1.0;"/><path codeLine="15" d="M198.4108,271.1758 C184.2625,284.8628 165.8772,302.6486 148.0606,319.8842 " fill="none" id="GreekPizza-to-Pizza" style="stroke:#A80036;stroke-width:1.0;stroke-dasharray:7.0,7.0;"/><polygon fill="none" points="152.9028,324.9393,133.6612,333.814,143.1687,314.8771,152.9028,324.9393" style="stroke:#A80036;stroke-width:1.0;"/><path codeLine="16" d="M85.4016,163.2373 C85.4016,179.3565 85.4016,200.6212 85.4016,217.6911 " fill="none" id="OrderPizza-to-CheesePizza" style="stroke:#A80036;stroke-width:1.0;stroke-dasharray:7.0,7.0;"/><polygon fill="#A80036" points="85.4016,222.8436,89.4016,213.8436,85.4016,217.8436,81.4016,213.8436,85.4016,222.8436" style="stroke:#A80036;stroke-width:1.0;"/><path codeLine="17" d="M116.3715,163.2373 C137.7673,179.9819 166.2578,202.2788 188.4648,219.6582 " fill="none" id="OrderPizza-to-GreekPizza" style="stroke:#A80036;stroke-width:1.0;stroke-dasharray:7.0,7.0;"/><polygon fill="#A80036" points="192.535,222.8436,187.9128,214.1467,188.5975,219.762,182.9823,220.4467,192.535,222.8436" style="stroke:#A80036;stroke-width:1.0;"/><path codeLine="18" d="M56.1704,163.3502 C40.2132,178.6137 21.998,199.7615 13.4016,223 C6,243.0082 7.2844,250.5625 13.4016,271 C19.2655,290.5912 29.8875,309.9239 41.2035,326.7644 " fill="none" id="OrderPizza-to-Pizza" style="stroke:#A80036;stroke-width:1.0;stroke-dasharray:7.0,7.0;"/><polygon fill="#A80036" points="44.0929,330.9909,42.3156,321.3037,41.271,326.8633,35.7115,325.8187,44.0929,330.9909" style="stroke:#A80036;stroke-width:1.0;"/><path codeLine="19" d="M85.4016,55.2373 C85.4016,71.3565 85.4016,92.6212 85.4016,109.6911 " fill="none" id="PizzaStore-to-OrderPizza" style="stroke:#A80036;stroke-width:1.0;stroke-dasharray:7.0,7.0;"/><polygon fill="#A80036" points="85.4016,114.8436,89.4016,105.8436,85.4016,109.8436,81.4016,105.8436,85.4016,114.8436" style="stroke:#A80036;stroke-width:1.0;"/></g></svg>