<?xml version="1.0" encoding="UTF-8" standalone="no"?><svg xmlns="http://www.w3.org/2000/svg" xmlns:xlink="http://www.w3.org/1999/xlink" contentScriptType="application/ecmascript" contentStyleType="text/css" height="285px" preserveAspectRatio="none" style="width:144px;height:285px;" version="1.1" viewBox="0 0 144 285" width="144px" zoomAndPan="magnify"><defs><filter height="300%" id="f1pmvob1nwqui1" width="300%" x="-1" y="-1"><feGaussianBlur result="blurOut" stdDeviation="2.0"/><feColorMatrix in="blurOut" result="blurOut2" type="matrix" values="0 0 0 0 0 0 0 0 0 0 0 0 0 0 0 0 0 0 .4 0"/><feOffset dx="4.0" dy="4.0" in="blurOut2" result="blurOut3"/><feBlend in="SourceGraphic" in2="blurOut3" mode="normal"/></filter></defs><g><rect codeLine="1" fill="#FEFECE" filter="url(#f1pmvob1nwqui1)" height="48" id="Servlet" style="stroke:#A80036;stroke-width:1.5;" width="75" x="31" y="223"/><ellipse cx="46" cy="239" fill="#B4A7E5" rx="11" ry="11" style="stroke:#A80036;stroke-width:1.0;"/><path d="M41.9219,234.7656 L41.9219,232.6094 L49.3125,232.6094 L49.3125,234.7656 L46.8438,234.7656 L46.8438,242.8438 L49.3125,242.8438 L49.3125,245 L41.9219,245 L41.9219,242.8438 L44.3906,242.8438 L44.3906,234.7656 L41.9219,234.7656 Z " fill="#000000"/><text fill="#000000" font-family="sans-serif" font-size="12" font-style="italic" lengthAdjust="spacing" textLength="43" x="60" y="243.1543">Servlet</text><line style="stroke:#A80036;stroke-width:1.5;" x1="32" x2="105" y1="255" y2="255"/><line style="stroke:#A80036;stroke-width:1.5;" x1="32" x2="105" y1="263" y2="263"/><rect codeLine="2" fill="#FEFECE" filter="url(#f1pmvob1nwqui1)" height="48" id="GenericServlet" style="stroke:#A80036;stroke-width:1.5;" width="123" x="7" y="115"/><ellipse cx="22" cy="131" fill="#ADD1B2" rx="11" ry="11" style="stroke:#A80036;stroke-width:1.0;"/><path d="M24.9688,136.6406 Q24.3906,136.9375 23.75,137.0859 Q23.1094,137.2344 22.4063,137.2344 Q19.9063,137.2344 18.5859,135.5859 Q17.2656,133.9375 17.2656,130.8125 Q17.2656,127.6875 18.5859,126.0313 Q19.9063,124.375 22.4063,124.375 Q23.1094,124.375 23.7578,124.5313 Q24.4063,124.6875 24.9688,124.9844 L24.9688,127.7031 Q24.3438,127.125 23.75,126.8516 Q23.1563,126.5781 22.5313,126.5781 Q21.1875,126.5781 20.5,127.6484 Q19.8125,128.7188 19.8125,130.8125 Q19.8125,132.9063 20.5,133.9766 Q21.1875,135.0469 22.5313,135.0469 Q23.1563,135.0469 23.75,134.7734 Q24.3438,134.5 24.9688,133.9219 L24.9688,136.6406 Z " fill="#000000"/><text fill="#000000" font-family="sans-serif" font-size="12" lengthAdjust="spacing" textLength="91" x="36" y="135.1543">GenericServlet</text><line style="stroke:#A80036;stroke-width:1.5;" x1="8" x2="129" y1="147" y2="147"/><line style="stroke:#A80036;stroke-width:1.5;" x1="8" x2="129" y1="155" y2="155"/><rect codeLine="3" fill="#FEFECE" filter="url(#f1pmvob1nwqui1)" height="48" id="HttpServlet" style="stroke:#A80036;stroke-width:1.5;" width="102" x="17.5" y="7"/><ellipse cx="32.5" cy="23" fill="#ADD1B2" rx="11" ry="11" style="stroke:#A80036;stroke-width:1.0;"/><path d="M35.4688,28.6406 Q34.8906,28.9375 34.25,29.0859 Q33.6094,29.2344 32.9063,29.2344 Q30.4063,29.2344 29.0859,27.5859 Q27.7656,25.9375 27.7656,22.8125 Q27.7656,19.6875 29.0859,18.0313 Q30.4063,16.375 32.9063,16.375 Q33.6094,16.375 34.2578,16.5313 Q34.9063,16.6875 35.4688,16.9844 L35.4688,19.7031 Q34.8438,19.125 34.25,18.8516 Q33.6563,18.5781 33.0313,18.5781 Q31.6875,18.5781 31,19.6484 Q30.3125,20.7188 30.3125,22.8125 Q30.3125,24.9063 31,25.9766 Q31.6875,27.0469 33.0313,27.0469 Q33.6563,27.0469 34.25,26.7734 Q34.8438,26.5 35.4688,25.9219 L35.4688,28.6406 Z " fill="#000000"/><text fill="#000000" font-family="sans-serif" font-size="12" lengthAdjust="spacing" textLength="70" x="46.5" y="27.1543">HttpServlet</text><line style="stroke:#A80036;stroke-width:1.5;" x1="18.5" x2="118.5" y1="39" y2="39"/><line style="stroke:#A80036;stroke-width:1.5;" x1="18.5" x2="118.5" y1="47" y2="47"/><path codeLine="5" d="M68.5,163.2373 C68.5,179.3565 68.5,200.6212 68.5,217.6911 " fill="none" id="GenericServlet-to-Servlet" style="stroke:#A80036;stroke-width:1.0;stroke-dasharray:7.0,7.0;"/><polygon fill="#A80036" points="68.5,222.8436,72.5,213.8436,68.5,217.8436,64.5,213.8436,68.5,222.8436" style="stroke:#A80036;stroke-width:1.0;"/><path codeLine="6" d="M68.5,55.2373 C68.5,66.9099 68.5,81.2806 68.5,94.8027 " fill="none" id="HttpServlet-to-GenericServlet" style="stroke:#A80036;stroke-width:1.0;"/><polygon fill="none" points="75.5001,94.8436,68.5,114.8436,61.5001,94.8436,75.5001,94.8436" style="stroke:#A80036;stroke-width:1.0;"/></g></svg>