<?xml version="1.0" encoding="us-ascii" standalone="no"?><svg xmlns="http://www.w3.org/2000/svg" xmlns:xlink="http://www.w3.org/1999/xlink" contentStyleType="text/css" height="278px" preserveAspectRatio="none" style="width:431px;height:278px;background:#FFFFFF;" version="1.1" viewBox="0 0 431 278" width="431px" zoomAndPan="magnify"><defs/><g><g id="elem_Map"><rect codeLine="2" fill="#F1F1F1" height="48" id="Map" rx="2.5" ry="2.5" style="stroke:#181818;stroke-width:0.5;" width="61" x="169" y="7"/><ellipse cx="184" cy="23" fill="#B4A7E5" rx="11" ry="11" style="stroke:#181818;stroke-width:1.0;"/><path d="M179.9219,18.7656 L179.9219,16.6094 L187.3125,16.6094 L187.3125,18.7656 L184.8438,18.7656 L184.8438,26.8438 L187.3125,26.8438 L187.3125,29 L179.9219,29 L179.9219,26.8438 L182.3906,26.8438 L182.3906,18.7656 L179.9219,18.7656 Z " fill="#000000"/><text fill="#000000" font-family="sans-serif" font-size="14" font-style="italic" lengthAdjust="spacing" textLength="29" x="198" y="27.8467">Map</text><line style="stroke:#181818;stroke-width:0.5;" x1="170" x2="229" y1="39" y2="39"/><line style="stroke:#181818;stroke-width:0.5;" x1="170" x2="229" y1="47" y2="47"/></g><g id="elem_SortedMap"><rect codeLine="4" fill="#F1F1F1" height="48" id="SortedMap" rx="2.5" ry="2.5" style="stroke:#181818;stroke-width:0.5;" width="107" x="7" y="115"/><ellipse cx="22" cy="131" fill="#B4A7E5" rx="11" ry="11" style="stroke:#181818;stroke-width:1.0;"/><path d="M17.9219,126.7656 L17.9219,124.6094 L25.3125,124.6094 L25.3125,126.7656 L22.8438,126.7656 L22.8438,134.8438 L25.3125,134.8438 L25.3125,137 L17.9219,137 L17.9219,134.8438 L20.3906,134.8438 L20.3906,126.7656 L17.9219,126.7656 Z " fill="#000000"/><text fill="#000000" font-family="sans-serif" font-size="14" font-style="italic" lengthAdjust="spacing" textLength="75" x="36" y="135.8467">SortedMap</text><line style="stroke:#181818;stroke-width:0.5;" x1="8" x2="113" y1="147" y2="147"/><line style="stroke:#181818;stroke-width:0.5;" x1="8" x2="113" y1="155" y2="155"/></g><g id="elem_TreeMap"><rect codeLine="6" fill="#F1F1F1" height="48" id="TreeMap" rx="2.5" ry="2.5" style="stroke:#181818;stroke-width:0.5;" width="93" x="14" y="223"/><ellipse cx="29" cy="239" fill="#ADD1B2" rx="11" ry="11" style="stroke:#181818;stroke-width:1.0;"/><path d="M31.9688,244.6406 Q31.3906,244.9375 30.75,245.0781 Q30.1094,245.2344 29.4063,245.2344 Q26.9063,245.2344 25.5781,243.5938 Q24.2656,241.9375 24.2656,238.8125 Q24.2656,235.6875 25.5781,234.0313 Q26.9063,232.375 29.4063,232.375 Q30.1094,232.375 30.75,232.5313 Q31.4063,232.6875 31.9688,232.9844 L31.9688,235.7031 Q31.3438,235.125 30.75,234.8594 Q30.1563,234.5781 29.5313,234.5781 Q28.1875,234.5781 27.5,235.6563 Q26.8125,236.7188 26.8125,238.8125 Q26.8125,240.9063 27.5,241.9844 Q28.1875,243.0469 29.5313,243.0469 Q30.1563,243.0469 30.75,242.7813 Q31.3438,242.5 31.9688,241.9219 L31.9688,244.6406 Z " fill="#000000"/><text fill="#000000" font-family="sans-serif" font-size="14" lengthAdjust="spacing" textLength="61" x="43" y="243.8467">TreeMap</text><line style="stroke:#181818;stroke-width:0.5;" x1="15" x2="106" y1="255" y2="255"/><line style="stroke:#181818;stroke-width:0.5;" x1="15" x2="106" y1="263" y2="263"/></g><g id="elem_Hashtable"><rect codeLine="8" fill="#F1F1F1" height="48" id="Hashtable" rx="2.5" ry="2.5" style="stroke:#181818;stroke-width:0.5;" width="101" x="149" y="115"/><ellipse cx="164" cy="131" fill="#ADD1B2" rx="11" ry="11" style="stroke:#181818;stroke-width:1.0;"/><path d="M166.9688,136.6406 Q166.3906,136.9375 165.75,137.0781 Q165.1094,137.2344 164.4063,137.2344 Q161.9063,137.2344 160.5781,135.5938 Q159.2656,133.9375 159.2656,130.8125 Q159.2656,127.6875 160.5781,126.0313 Q161.9063,124.375 164.4063,124.375 Q165.1094,124.375 165.75,124.5313 Q166.4063,124.6875 166.9688,124.9844 L166.9688,127.7031 Q166.3438,127.125 165.75,126.8594 Q165.1563,126.5781 164.5313,126.5781 Q163.1875,126.5781 162.5,127.6563 Q161.8125,128.7188 161.8125,130.8125 Q161.8125,132.9063 162.5,133.9844 Q163.1875,135.0469 164.5313,135.0469 Q165.1563,135.0469 165.75,134.7813 Q166.3438,134.5 166.9688,133.9219 L166.9688,136.6406 Z " fill="#000000"/><text fill="#000000" font-family="sans-serif" font-size="14" lengthAdjust="spacing" textLength="69" x="178" y="135.8467">Hashtable</text><line style="stroke:#181818;stroke-width:0.5;" x1="150" x2="249" y1="147" y2="147"/><line style="stroke:#181818;stroke-width:0.5;" x1="150" x2="249" y1="155" y2="155"/></g><g id="elem_Properties"><rect codeLine="10" fill="#F1F1F1" height="48" id="Properties" rx="2.5" ry="2.5" style="stroke:#181818;stroke-width:0.5;" width="103" x="145" y="223"/><ellipse cx="160" cy="239" fill="#ADD1B2" rx="11" ry="11" style="stroke:#181818;stroke-width:1.0;"/><path d="M162.9688,244.6406 Q162.3906,244.9375 161.75,245.0781 Q161.1094,245.2344 160.4063,245.2344 Q157.9063,245.2344 156.5781,243.5938 Q155.2656,241.9375 155.2656,238.8125 Q155.2656,235.6875 156.5781,234.0313 Q157.9063,232.375 160.4063,232.375 Q161.1094,232.375 161.75,232.5313 Q162.4063,232.6875 162.9688,232.9844 L162.9688,235.7031 Q162.3438,235.125 161.75,234.8594 Q161.1563,234.5781 160.5313,234.5781 Q159.1875,234.5781 158.5,235.6563 Q157.8125,236.7188 157.8125,238.8125 Q157.8125,240.9063 158.5,241.9844 Q159.1875,243.0469 160.5313,243.0469 Q161.1563,243.0469 161.75,242.7813 Q162.3438,242.5 162.9688,241.9219 L162.9688,244.6406 Z " fill="#000000"/><text fill="#000000" font-family="sans-serif" font-size="14" lengthAdjust="spacing" textLength="71" x="174" y="243.8467">Properties</text><line style="stroke:#181818;stroke-width:0.5;" x1="146" x2="247" y1="255" y2="255"/><line style="stroke:#181818;stroke-width:0.5;" x1="146" x2="247" y1="263" y2="263"/></g><g id="elem_HashMap"><rect fill="#F1F1F1" height="48" id="HashMap" rx="2.5" ry="2.5" style="stroke:#181818;stroke-width:0.5;" width="96" x="293.5" y="115"/><ellipse cx="308.5" cy="131" fill="#ADD1B2" rx="11" ry="11" style="stroke:#181818;stroke-width:1.0;"/><path d="M311.4688,136.6406 Q310.8906,136.9375 310.25,137.0781 Q309.6094,137.2344 308.9063,137.2344 Q306.4063,137.2344 305.0781,135.5938 Q303.7656,133.9375 303.7656,130.8125 Q303.7656,127.6875 305.0781,126.0313 Q306.4063,124.375 308.9063,124.375 Q309.6094,124.375 310.25,124.5313 Q310.9063,124.6875 311.4688,124.9844 L311.4688,127.7031 Q310.8438,127.125 310.25,126.8594 Q309.6563,126.5781 309.0313,126.5781 Q307.6875,126.5781 307,127.6563 Q306.3125,128.7188 306.3125,130.8125 Q306.3125,132.9063 307,133.9844 Q307.6875,135.0469 309.0313,135.0469 Q309.6563,135.0469 310.25,134.7813 Q310.8438,134.5 311.4688,133.9219 L311.4688,136.6406 Z " fill="#000000"/><text fill="#000000" font-family="sans-serif" font-size="14" lengthAdjust="spacing" textLength="64" x="322.5" y="135.8467">HashMap</text><line style="stroke:#181818;stroke-width:0.5;" x1="294.5" x2="388.5" y1="147" y2="147"/><line style="stroke:#181818;stroke-width:0.5;" x1="294.5" x2="388.5" y1="155" y2="155"/></g><g id="elem_LinkedHashMap"><rect fill="#F1F1F1" height="48" id="LinkedHashMap" rx="2.5" ry="2.5" style="stroke:#181818;stroke-width:0.5;" width="141" x="283" y="223"/><ellipse cx="298" cy="239" fill="#ADD1B2" rx="11" ry="11" style="stroke:#181818;stroke-width:1.0;"/><path d="M300.9688,244.6406 Q300.3906,244.9375 299.75,245.0781 Q299.1094,245.2344 298.4063,245.2344 Q295.9063,245.2344 294.5781,243.5938 Q293.2656,241.9375 293.2656,238.8125 Q293.2656,235.6875 294.5781,234.0313 Q295.9063,232.375 298.4063,232.375 Q299.1094,232.375 299.75,232.5313 Q300.4063,232.6875 300.9688,232.9844 L300.9688,235.7031 Q300.3438,235.125 299.75,234.8594 Q299.1563,234.5781 298.5313,234.5781 Q297.1875,234.5781 296.5,235.6563 Q295.8125,236.7188 295.8125,238.8125 Q295.8125,240.9063 296.5,241.9844 Q297.1875,243.0469 298.5313,243.0469 Q299.1563,243.0469 299.75,242.7813 Q300.3438,242.5 300.9688,241.9219 L300.9688,244.6406 Z " fill="#000000"/><text fill="#000000" font-family="sans-serif" font-size="14" lengthAdjust="spacing" textLength="109" x="312" y="243.8467">LinkedHashMap</text><line style="stroke:#181818;stroke-width:0.5;" x1="284" x2="423" y1="255" y2="255"/><line style="stroke:#181818;stroke-width:0.5;" x1="284" x2="423" y1="263" y2="263"/></g><g id="link_Map_HashMap"><path codeLine="12" d="M244.7363,65.7675 C268.3913,83.4255 286.496,96.941 310.258,114.678 " fill="none" id="Map-backto-HashMap" style="stroke:#181818;stroke-width:1.0;stroke-dasharray:7.0,7.0;"/><polygon fill="none" points="230.312,55,241.1472,70.5756,248.3255,60.9594,230.312,55" style="stroke:#181818;stroke-width:1.0;"/></g><g id="link_Map_Hashtable"><path codeLine="13" d="M199.5,73 C199.5,90.658 199.5,96.941 199.5,114.678 " fill="none" id="Map-backto-Hashtable" style="stroke:#181818;stroke-width:1.0;stroke-dasharray:7.0,7.0;"/><polygon fill="none" points="199.5,55,193.5,73,205.5,73,199.5,55" style="stroke:#181818;stroke-width:1.0;"/></g><g id="link_Map_SortedMap"><path codeLine="14" d="M155.026,65.9151 C131.871,83.5731 114.342,96.941 91.0821,114.678 " fill="none" id="Map-backto-SortedMap" style="stroke:#181818;stroke-width:1.0;"/><polygon fill="none" points="169.339,55,151.3877,61.1441,158.6644,70.6861,169.339,55" style="stroke:#181818;stroke-width:1.0;"/></g><g id="link_SortedMap_TreeMap"><path codeLine="15" d="M60.5,181 C60.5,198.6584 60.5,204.9408 60.5,222.6784 " fill="none" id="SortedMap-backto-TreeMap" style="stroke:#181818;stroke-width:1.0;stroke-dasharray:7.0,7.0;"/><polygon fill="none" points="60.5,163,54.5,181,66.5,181,60.5,163" style="stroke:#181818;stroke-width:1.0;"/></g><g id="link_Hashtable_Properties"><path codeLine="16" d="M198.3395,180.9928 C197.8395,198.6512 197.662,204.9408 197.16,222.6784 " fill="none" id="Hashtable-backto-Properties" style="stroke:#181818;stroke-width:1.0;"/><polygon fill="none" points="198.849,163,192.3419,180.823,204.3371,181.1626,198.849,163" style="stroke:#181818;stroke-width:1.0;"/></g><g id="link_HashMap_LinkedHashMap"><path codeLine="17" d="M346.1287,180.8858 C348.1277,198.5442 348.852,204.9408 350.86,222.6784 " fill="none" id="HashMap-backto-LinkedHashMap" style="stroke:#181818;stroke-width:1.0;"/><polygon fill="none" points="344.104,163,340.1668,181.5607,352.0907,180.2108,344.104,163" style="stroke:#181818;stroke-width:1.0;"/></g></g></svg>