<?xml version="1.0" encoding="us-ascii" standalone="no"?><svg xmlns="http://www.w3.org/2000/svg" xmlns:xlink="http://www.w3.org/1999/xlink" contentStyleType="text/css" height="666px" preserveAspectRatio="none" style="width:996px;height:666px;background:#FFFFFF;" version="1.1" viewBox="0 0 996 666" width="996px" zoomAndPan="magnify"><defs/><g><g id="elem_Collection"><rect codeLine="2" fill="#F1F1F1" height="48" id="Collection" rx="2.5" ry="2.5" style="stroke:#181818;stroke-width:0.5;" width="100" x="464.5" y="331"/><ellipse cx="479.5" cy="347" fill="#B4A7E5" rx="11" ry="11" style="stroke:#181818;stroke-width:1.0;"/><path d="M475.4219,342.7656 L475.4219,340.6094 L482.8125,340.6094 L482.8125,342.7656 L480.3438,342.7656 L480.3438,350.8438 L482.8125,350.8438 L482.8125,353 L475.4219,353 L475.4219,350.8438 L477.8906,350.8438 L477.8906,342.7656 L475.4219,342.7656 Z " fill="#000000"/><text fill="#000000" font-family="sans-serif" font-size="14" font-style="italic" lengthAdjust="spacing" textLength="68" x="493.5" y="351.8467">Collection</text><line style="stroke:#181818;stroke-width:0.5;" x1="465.5" x2="563.5" y1="363" y2="363"/><line style="stroke:#181818;stroke-width:0.5;" x1="465.5" x2="563.5" y1="371" y2="371"/></g><g id="elem_Iterable"><rect codeLine="4" fill="#F1F1F1" height="64.2969" id="Iterable" rx="2.5" ry="2.5" style="stroke:#181818;stroke-width:0.5;" width="85" x="472" y="439"/><ellipse cx="487.9" cy="455" fill="#B4A7E5" rx="11" ry="11" style="stroke:#181818;stroke-width:1.0;"/><path d="M483.8219,450.7656 L483.8219,448.6094 L491.2125,448.6094 L491.2125,450.7656 L488.7438,450.7656 L488.7438,458.8438 L491.2125,458.8438 L491.2125,461 L483.8219,461 L483.8219,458.8438 L486.2906,458.8438 L486.2906,450.7656 L483.8219,450.7656 Z " fill="#000000"/><text fill="#000000" font-family="sans-serif" font-size="14" font-style="italic" lengthAdjust="spacing" textLength="51" x="502.1" y="459.8467">Iterable</text><line style="stroke:#181818;stroke-width:0.5;" x1="473" x2="556" y1="471" y2="471"/><line style="stroke:#181818;stroke-width:0.5;" x1="473" x2="556" y1="479" y2="479"/><ellipse cx="483" cy="492.6484" fill="#84BE84" rx="3" ry="3" style="stroke:#038048;stroke-width:1.0;"/><text fill="#000000" font-family="sans-serif" font-size="14" lengthAdjust="spacing" textLength="59" x="492" y="495.9951">iterator()</text></g><g id="elem_Iterator"><rect codeLine="8" fill="#F1F1F1" height="96.8906" id="Iterator" rx="2.5" ry="2.5" style="stroke:#181818;stroke-width:0.5;" width="92" x="468.5" y="563"/><ellipse cx="488.45" cy="579" fill="#B4A7E5" rx="11" ry="11" style="stroke:#181818;stroke-width:1.0;"/><path d="M484.3719,574.7656 L484.3719,572.6094 L491.7625,572.6094 L491.7625,574.7656 L489.2938,574.7656 L489.2938,582.8438 L491.7625,582.8438 L491.7625,585 L484.3719,585 L484.3719,582.8438 L486.8406,582.8438 L486.8406,574.7656 L484.3719,574.7656 Z " fill="#000000"/><text fill="#000000" font-family="sans-serif" font-size="14" font-style="italic" lengthAdjust="spacing" textLength="49" x="503.55" y="583.8467">Iterator</text><line style="stroke:#181818;stroke-width:0.5;" x1="469.5" x2="559.5" y1="595" y2="595"/><line style="stroke:#181818;stroke-width:0.5;" x1="469.5" x2="559.5" y1="603" y2="603"/><ellipse cx="479.5" cy="616.6484" fill="#84BE84" rx="3" ry="3" style="stroke:#038048;stroke-width:1.0;"/><text fill="#000000" font-family="sans-serif" font-size="14" lengthAdjust="spacing" textLength="66" x="488.5" y="619.9951">hasNext()</text><ellipse cx="479.5" cy="632.9453" fill="#84BE84" rx="3" ry="3" style="stroke:#038048;stroke-width:1.0;"/><text fill="#000000" font-family="sans-serif" font-size="14" lengthAdjust="spacing" textLength="40" x="488.5" y="636.292">next()</text><ellipse cx="479.5" cy="649.2422" fill="#84BE84" rx="3" ry="3" style="stroke:#038048;stroke-width:1.0;"/><text fill="#000000" font-family="sans-serif" font-size="14" lengthAdjust="spacing" textLength="62" x="488.5" y="652.5889">remove()</text></g><g id="elem_List"><rect codeLine="14" fill="#F1F1F1" height="48" id="List" rx="2.5" ry="2.5" style="stroke:#181818;stroke-width:0.5;" width="55" x="188" y="223"/><ellipse cx="203" cy="239" fill="#B4A7E5" rx="11" ry="11" style="stroke:#181818;stroke-width:1.0;"/><path d="M198.9219,234.7656 L198.9219,232.6094 L206.3125,232.6094 L206.3125,234.7656 L203.8438,234.7656 L203.8438,242.8438 L206.3125,242.8438 L206.3125,245 L198.9219,245 L198.9219,242.8438 L201.3906,242.8438 L201.3906,234.7656 L198.9219,234.7656 Z " fill="#000000"/><text fill="#000000" font-family="sans-serif" font-size="14" font-style="italic" lengthAdjust="spacing" textLength="23" x="217" y="243.8467">List</text><line style="stroke:#181818;stroke-width:0.5;" x1="189" x2="242" y1="255" y2="255"/><line style="stroke:#181818;stroke-width:0.5;" x1="189" x2="242" y1="263" y2="263"/></g><g id="elem_Set"><rect codeLine="16" fill="#F1F1F1" height="48" id="Set" rx="2.5" ry="2.5" style="stroke:#181818;stroke-width:0.5;" width="55" x="780" y="223"/><ellipse cx="795" cy="239" fill="#B4A7E5" rx="11" ry="11" style="stroke:#181818;stroke-width:1.0;"/><path d="M790.9219,234.7656 L790.9219,232.6094 L798.3125,232.6094 L798.3125,234.7656 L795.8438,234.7656 L795.8438,242.8438 L798.3125,242.8438 L798.3125,245 L790.9219,245 L790.9219,242.8438 L793.3906,242.8438 L793.3906,234.7656 L790.9219,234.7656 Z " fill="#000000"/><text fill="#000000" font-family="sans-serif" font-size="14" font-style="italic" lengthAdjust="spacing" textLength="23" x="809" y="243.8467">Set</text><line style="stroke:#181818;stroke-width:0.5;" x1="781" x2="834" y1="255" y2="255"/><line style="stroke:#181818;stroke-width:0.5;" x1="781" x2="834" y1="263" y2="263"/></g><g id="elem_Queue"><rect codeLine="18" fill="#F1F1F1" height="48" id="Queue" rx="2.5" ry="2.5" style="stroke:#181818;stroke-width:0.5;" width="79" x="475" y="223"/><ellipse cx="490" cy="239" fill="#B4A7E5" rx="11" ry="11" style="stroke:#181818;stroke-width:1.0;"/><path d="M485.9219,234.7656 L485.9219,232.6094 L493.3125,232.6094 L493.3125,234.7656 L490.8438,234.7656 L490.8438,242.8438 L493.3125,242.8438 L493.3125,245 L485.9219,245 L485.9219,242.8438 L488.3906,242.8438 L488.3906,234.7656 L485.9219,234.7656 Z " fill="#000000"/><text fill="#000000" font-family="sans-serif" font-size="14" font-style="italic" lengthAdjust="spacing" textLength="47" x="504" y="243.8467">Queue</text><line style="stroke:#181818;stroke-width:0.5;" x1="476" x2="553" y1="255" y2="255"/><line style="stroke:#181818;stroke-width:0.5;" x1="476" x2="553" y1="263" y2="263"/></g><g id="elem_ArrayList"><rect codeLine="20" fill="#F1F1F1" height="48" id="ArrayList" rx="2.5" ry="2.5" style="stroke:#181818;stroke-width:0.5;" width="89" x="7" y="115"/><ellipse cx="22" cy="131" fill="#ADD1B2" rx="11" ry="11" style="stroke:#181818;stroke-width:1.0;"/><path d="M24.9688,136.6406 Q24.3906,136.9375 23.75,137.0781 Q23.1094,137.2344 22.4063,137.2344 Q19.9063,137.2344 18.5781,135.5938 Q17.2656,133.9375 17.2656,130.8125 Q17.2656,127.6875 18.5781,126.0313 Q19.9063,124.375 22.4063,124.375 Q23.1094,124.375 23.75,124.5313 Q24.4063,124.6875 24.9688,124.9844 L24.9688,127.7031 Q24.3438,127.125 23.75,126.8594 Q23.1563,126.5781 22.5313,126.5781 Q21.1875,126.5781 20.5,127.6563 Q19.8125,128.7188 19.8125,130.8125 Q19.8125,132.9063 20.5,133.9844 Q21.1875,135.0469 22.5313,135.0469 Q23.1563,135.0469 23.75,134.7813 Q24.3438,134.5 24.9688,133.9219 L24.9688,136.6406 Z " fill="#000000"/><text fill="#000000" font-family="sans-serif" font-size="14" lengthAdjust="spacing" textLength="57" x="36" y="135.8467">ArrayList</text><line style="stroke:#181818;stroke-width:0.5;" x1="8" x2="95" y1="147" y2="147"/><line style="stroke:#181818;stroke-width:0.5;" x1="8" x2="95" y1="155" y2="155"/></g><g id="elem_LinkedList"><rect codeLine="22" fill="#F1F1F1" height="48" id="LinkedList" rx="2.5" ry="2.5" style="stroke:#181818;stroke-width:0.5;" width="100" x="280.5" y="7"/><ellipse cx="295.5" cy="23" fill="#ADD1B2" rx="11" ry="11" style="stroke:#181818;stroke-width:1.0;"/><path d="M298.4688,28.6406 Q297.8906,28.9375 297.25,29.0781 Q296.6094,29.2344 295.9063,29.2344 Q293.4063,29.2344 292.0781,27.5938 Q290.7656,25.9375 290.7656,22.8125 Q290.7656,19.6875 292.0781,18.0313 Q293.4063,16.375 295.9063,16.375 Q296.6094,16.375 297.25,16.5313 Q297.9063,16.6875 298.4688,16.9844 L298.4688,19.7031 Q297.8438,19.125 297.25,18.8594 Q296.6563,18.5781 296.0313,18.5781 Q294.6875,18.5781 294,19.6563 Q293.3125,20.7188 293.3125,22.8125 Q293.3125,24.9063 294,25.9844 Q294.6875,27.0469 296.0313,27.0469 Q296.6563,27.0469 297.25,26.7813 Q297.8438,26.5 298.4688,25.9219 L298.4688,28.6406 Z " fill="#000000"/><text fill="#000000" font-family="sans-serif" font-size="14" lengthAdjust="spacing" textLength="68" x="309.5" y="27.8467">LinkedList</text><line style="stroke:#181818;stroke-width:0.5;" x1="281.5" x2="379.5" y1="39" y2="39"/><line style="stroke:#181818;stroke-width:0.5;" x1="281.5" x2="379.5" y1="47" y2="47"/></g><g id="elem_Vector"><rect codeLine="24" fill="#F1F1F1" height="48" id="Vector" rx="2.5" ry="2.5" style="stroke:#181818;stroke-width:0.5;" width="77" x="131" y="115"/><ellipse cx="146" cy="131" fill="#ADD1B2" rx="11" ry="11" style="stroke:#181818;stroke-width:1.0;"/><path d="M148.9688,136.6406 Q148.3906,136.9375 147.75,137.0781 Q147.1094,137.2344 146.4063,137.2344 Q143.9063,137.2344 142.5781,135.5938 Q141.2656,133.9375 141.2656,130.8125 Q141.2656,127.6875 142.5781,126.0313 Q143.9063,124.375 146.4063,124.375 Q147.1094,124.375 147.75,124.5313 Q148.4063,124.6875 148.9688,124.9844 L148.9688,127.7031 Q148.3438,127.125 147.75,126.8594 Q147.1563,126.5781 146.5313,126.5781 Q145.1875,126.5781 144.5,127.6563 Q143.8125,128.7188 143.8125,130.8125 Q143.8125,132.9063 144.5,133.9844 Q145.1875,135.0469 146.5313,135.0469 Q147.1563,135.0469 147.75,134.7813 Q148.3438,134.5 148.9688,133.9219 L148.9688,136.6406 Z " fill="#000000"/><text fill="#000000" font-family="sans-serif" font-size="14" lengthAdjust="spacing" textLength="45" x="160" y="135.8467">Vector</text><line style="stroke:#181818;stroke-width:0.5;" x1="132" x2="207" y1="147" y2="147"/><line style="stroke:#181818;stroke-width:0.5;" x1="132" x2="207" y1="155" y2="155"/></g><g id="elem_Stack"><rect codeLine="26" fill="#F1F1F1" height="48" id="Stack" rx="2.5" ry="2.5" style="stroke:#181818;stroke-width:0.5;" width="70" x="134.5" y="7"/><ellipse cx="149.5" cy="23" fill="#ADD1B2" rx="11" ry="11" style="stroke:#181818;stroke-width:1.0;"/><path d="M152.4688,28.6406 Q151.8906,28.9375 151.25,29.0781 Q150.6094,29.2344 149.9063,29.2344 Q147.4063,29.2344 146.0781,27.5938 Q144.7656,25.9375 144.7656,22.8125 Q144.7656,19.6875 146.0781,18.0313 Q147.4063,16.375 149.9063,16.375 Q150.6094,16.375 151.25,16.5313 Q151.9063,16.6875 152.4688,16.9844 L152.4688,19.7031 Q151.8438,19.125 151.25,18.8594 Q150.6563,18.5781 150.0313,18.5781 Q148.6875,18.5781 148,19.6563 Q147.3125,20.7188 147.3125,22.8125 Q147.3125,24.9063 148,25.9844 Q148.6875,27.0469 150.0313,27.0469 Q150.6563,27.0469 151.25,26.7813 Q151.8438,26.5 152.4688,25.9219 L152.4688,28.6406 Z " fill="#000000"/><text fill="#000000" font-family="sans-serif" font-size="14" lengthAdjust="spacing" textLength="38" x="163.5" y="27.8467">Stack</text><line style="stroke:#181818;stroke-width:0.5;" x1="135.5" x2="203.5" y1="39" y2="39"/><line style="stroke:#181818;stroke-width:0.5;" x1="135.5" x2="203.5" y1="47" y2="47"/></g><g id="elem_HashSet"><rect codeLine="28" fill="#F1F1F1" height="48" id="HashSet" rx="2.5" ry="2.5" style="stroke:#181818;stroke-width:0.5;" width="90" x="762.5" y="115"/><ellipse cx="777.5" cy="131" fill="#ADD1B2" rx="11" ry="11" style="stroke:#181818;stroke-width:1.0;"/><path d="M780.4688,136.6406 Q779.8906,136.9375 779.25,137.0781 Q778.6094,137.2344 777.9063,137.2344 Q775.4063,137.2344 774.0781,135.5938 Q772.7656,133.9375 772.7656,130.8125 Q772.7656,127.6875 774.0781,126.0313 Q775.4063,124.375 777.9063,124.375 Q778.6094,124.375 779.25,124.5313 Q779.9063,124.6875 780.4688,124.9844 L780.4688,127.7031 Q779.8438,127.125 779.25,126.8594 Q778.6563,126.5781 778.0313,126.5781 Q776.6875,126.5781 776,127.6563 Q775.3125,128.7188 775.3125,130.8125 Q775.3125,132.9063 776,133.9844 Q776.6875,135.0469 778.0313,135.0469 Q778.6563,135.0469 779.25,134.7813 Q779.8438,134.5 780.4688,133.9219 L780.4688,136.6406 Z " fill="#000000"/><text fill="#000000" font-family="sans-serif" font-size="14" lengthAdjust="spacing" textLength="58" x="791.5" y="135.8467">HashSet</text><line style="stroke:#181818;stroke-width:0.5;" x1="763.5" x2="851.5" y1="147" y2="147"/><line style="stroke:#181818;stroke-width:0.5;" x1="763.5" x2="851.5" y1="155" y2="155"/></g><g id="elem_SortedSet"><rect codeLine="30" fill="#F1F1F1" height="48" id="SortedSet" rx="2.5" ry="2.5" style="stroke:#181818;stroke-width:0.5;" width="101" x="888" y="115"/><ellipse cx="903" cy="131" fill="#B4A7E5" rx="11" ry="11" style="stroke:#181818;stroke-width:1.0;"/><path d="M898.9219,126.7656 L898.9219,124.6094 L906.3125,124.6094 L906.3125,126.7656 L903.8438,126.7656 L903.8438,134.8438 L906.3125,134.8438 L906.3125,137 L898.9219,137 L898.9219,134.8438 L901.3906,134.8438 L901.3906,126.7656 L898.9219,126.7656 Z " fill="#000000"/><text fill="#000000" font-family="sans-serif" font-size="14" font-style="italic" lengthAdjust="spacing" textLength="69" x="917" y="135.8467">SortedSet</text><line style="stroke:#181818;stroke-width:0.5;" x1="889" x2="988" y1="147" y2="147"/><line style="stroke:#181818;stroke-width:0.5;" x1="889" x2="988" y1="155" y2="155"/></g><g id="elem_TreeSet"><rect codeLine="32" fill="#F1F1F1" height="48" id="TreeSet" rx="2.5" ry="2.5" style="stroke:#181818;stroke-width:0.5;" width="87" x="895" y="7"/><ellipse cx="910" cy="23" fill="#ADD1B2" rx="11" ry="11" style="stroke:#181818;stroke-width:1.0;"/><path d="M912.9688,28.6406 Q912.3906,28.9375 911.75,29.0781 Q911.1094,29.2344 910.4063,29.2344 Q907.9063,29.2344 906.5781,27.5938 Q905.2656,25.9375 905.2656,22.8125 Q905.2656,19.6875 906.5781,18.0313 Q907.9063,16.375 910.4063,16.375 Q911.1094,16.375 911.75,16.5313 Q912.4063,16.6875 912.9688,16.9844 L912.9688,19.7031 Q912.3438,19.125 911.75,18.8594 Q911.1563,18.5781 910.5313,18.5781 Q909.1875,18.5781 908.5,19.6563 Q907.8125,20.7188 907.8125,22.8125 Q907.8125,24.9063 908.5,25.9844 Q909.1875,27.0469 910.5313,27.0469 Q911.1563,27.0469 911.75,26.7813 Q912.3438,26.5 912.9688,25.9219 L912.9688,28.6406 Z " fill="#000000"/><text fill="#000000" font-family="sans-serif" font-size="14" lengthAdjust="spacing" textLength="55" x="924" y="27.8467">TreeSet</text><line style="stroke:#181818;stroke-width:0.5;" x1="896" x2="981" y1="39" y2="39"/><line style="stroke:#181818;stroke-width:0.5;" x1="896" x2="981" y1="47" y2="47"/></g><g id="elem_Deque"><rect codeLine="34" fill="#F1F1F1" height="48" id="Deque" rx="2.5" ry="2.5" style="stroke:#181818;stroke-width:0.5;" width="79" x="475" y="115"/><ellipse cx="490" cy="131" fill="#B4A7E5" rx="11" ry="11" style="stroke:#181818;stroke-width:1.0;"/><path d="M485.9219,126.7656 L485.9219,124.6094 L493.3125,124.6094 L493.3125,126.7656 L490.8438,126.7656 L490.8438,134.8438 L493.3125,134.8438 L493.3125,137 L485.9219,137 L485.9219,134.8438 L488.3906,134.8438 L488.3906,126.7656 L485.9219,126.7656 Z " fill="#000000"/><text fill="#000000" font-family="sans-serif" font-size="14" font-style="italic" lengthAdjust="spacing" textLength="47" x="504" y="135.8467">Deque</text><line style="stroke:#181818;stroke-width:0.5;" x1="476" x2="553" y1="147" y2="147"/><line style="stroke:#181818;stroke-width:0.5;" x1="476" x2="553" y1="155" y2="155"/></g><g id="elem_BlockingQueue"><rect codeLine="36" fill="#F1F1F1" height="48" id="BlockingQueue" rx="2.5" ry="2.5" style="stroke:#181818;stroke-width:0.5;" width="138" x="589.5" y="115"/><ellipse cx="604.5" cy="131" fill="#B4A7E5" rx="11" ry="11" style="stroke:#181818;stroke-width:1.0;"/><path d="M600.4219,126.7656 L600.4219,124.6094 L607.8125,124.6094 L607.8125,126.7656 L605.3438,126.7656 L605.3438,134.8438 L607.8125,134.8438 L607.8125,137 L600.4219,137 L600.4219,134.8438 L602.8906,134.8438 L602.8906,126.7656 L600.4219,126.7656 Z " fill="#000000"/><text fill="#000000" font-family="sans-serif" font-size="14" font-style="italic" lengthAdjust="spacing" textLength="106" x="618.5" y="135.8467">BlockingQueue</text><line style="stroke:#181818;stroke-width:0.5;" x1="590.5" x2="726.5" y1="147" y2="147"/><line style="stroke:#181818;stroke-width:0.5;" x1="590.5" x2="726.5" y1="155" y2="155"/></g><g id="elem_ArrayQueue"><rect fill="#F1F1F1" height="48" id="ArrayQueue" rx="2.5" ry="2.5" style="stroke:#181818;stroke-width:0.5;" width="113" x="458" y="7"/><ellipse cx="473" cy="23" fill="#ADD1B2" rx="11" ry="11" style="stroke:#181818;stroke-width:1.0;"/><path d="M475.9688,28.6406 Q475.3906,28.9375 474.75,29.0781 Q474.1094,29.2344 473.4063,29.2344 Q470.9063,29.2344 469.5781,27.5938 Q468.2656,25.9375 468.2656,22.8125 Q468.2656,19.6875 469.5781,18.0313 Q470.9063,16.375 473.4063,16.375 Q474.1094,16.375 474.75,16.5313 Q475.4063,16.6875 475.9688,16.9844 L475.9688,19.7031 Q475.3438,19.125 474.75,18.8594 Q474.1563,18.5781 473.5313,18.5781 Q472.1875,18.5781 471.5,19.6563 Q470.8125,20.7188 470.8125,22.8125 Q470.8125,24.9063 471.5,25.9844 Q472.1875,27.0469 473.5313,27.0469 Q474.1563,27.0469 474.75,26.7813 Q475.3438,26.5 475.9688,25.9219 L475.9688,28.6406 Z " fill="#000000"/><text fill="#000000" font-family="sans-serif" font-size="14" lengthAdjust="spacing" textLength="81" x="487" y="27.8467">ArrayQueue</text><line style="stroke:#181818;stroke-width:0.5;" x1="459" x2="570" y1="39" y2="39"/><line style="stroke:#181818;stroke-width:0.5;" x1="459" x2="570" y1="47" y2="47"/></g><g id="elem_PriorityQueue"><rect fill="#F1F1F1" height="48" id="PriorityQueue" rx="2.5" ry="2.5" style="stroke:#181818;stroke-width:0.5;" width="125" x="315" y="115"/><ellipse cx="330" cy="131" fill="#ADD1B2" rx="11" ry="11" style="stroke:#181818;stroke-width:1.0;"/><path d="M332.9688,136.6406 Q332.3906,136.9375 331.75,137.0781 Q331.1094,137.2344 330.4063,137.2344 Q327.9063,137.2344 326.5781,135.5938 Q325.2656,133.9375 325.2656,130.8125 Q325.2656,127.6875 326.5781,126.0313 Q327.9063,124.375 330.4063,124.375 Q331.1094,124.375 331.75,124.5313 Q332.4063,124.6875 332.9688,124.9844 L332.9688,127.7031 Q332.3438,127.125 331.75,126.8594 Q331.1563,126.5781 330.5313,126.5781 Q329.1875,126.5781 328.5,127.6563 Q327.8125,128.7188 327.8125,130.8125 Q327.8125,132.9063 328.5,133.9844 Q329.1875,135.0469 330.5313,135.0469 Q331.1563,135.0469 331.75,134.7813 Q332.3438,134.5 332.9688,133.9219 L332.9688,136.6406 Z " fill="#000000"/><text fill="#000000" font-family="sans-serif" font-size="14" lengthAdjust="spacing" textLength="93" x="344" y="135.8467">PriorityQueue</text><line style="stroke:#181818;stroke-width:0.5;" x1="316" x2="439" y1="147" y2="147"/><line style="stroke:#181818;stroke-width:0.5;" x1="316" x2="439" y1="155" y2="155"/></g><g id="link_Collection_Iterable"><path codeLine="38" d="M514.5,379.07 C514.5,396.246 514.5,401.884 514.5,420.755 " fill="none" id="Collection-to-Iterable" style="stroke:#181818;stroke-width:1.0;"/><polygon fill="none" points="514.5,438.755,520.5,420.755,508.5,420.755,514.5,438.755" style="stroke:#181818;stroke-width:1.0;"/></g><g id="link_Iterable_Iterator"><path codeLine="39" d="M514.5,503.082 C514.5,520.708 514.5,537.131 514.5,556.9263 " fill="none" id="Iterable-to-Iterator" style="stroke:#181818;stroke-width:1.0;"/><polygon fill="#181818" points="514.5,562.9263,518.5,553.9263,514.5,557.9263,510.5,553.9263,514.5,562.9263" style="stroke:#181818;stroke-width:1.0;"/></g><g id="link_List_Collection"><path codeLine="40" d="M243.093,257.782 C293.404,275.618 383.7415,307.6447 447.3205,330.1837 " fill="none" id="List-to-Collection" style="stroke:#181818;stroke-width:1.0;"/><polygon fill="none" points="464.286,336.198,449.3253,324.5285,445.3157,335.8388,464.286,336.198" style="stroke:#181818;stroke-width:1.0;"/></g><g id="link_Set_Collection"><path codeLine="41" d="M779.935,257.972 C730.645,275.804 643.6814,307.2655 581.4954,329.7625 " fill="none" id="Set-to-Collection" style="stroke:#181818;stroke-width:1.0;"/><polygon fill="none" points="564.569,335.886,583.5366,335.4047,579.4543,324.1204,564.569,335.886" style="stroke:#181818;stroke-width:1.0;"/></g><g id="link_Queue_Collection"><path codeLine="42" d="M514.5,271 C514.5,288.658 514.5,294.941 514.5,312.678 " fill="none" id="Queue-to-Collection" style="stroke:#181818;stroke-width:1.0;"/><polygon fill="none" points="514.5,330.678,520.5,312.678,508.5,312.678,514.5,330.678" style="stroke:#181818;stroke-width:1.0;"/></g><g id="link_ArrayList_List"><path codeLine="43" d="M87.0856,163 C117.326,182.546 145.0068,200.4371 172.7288,218.3551 " fill="none" id="ArrayList-to-List" style="stroke:#181818;stroke-width:1.0;stroke-dasharray:7.0,7.0;"/><polygon fill="none" points="187.846,228.126,175.9858,213.316,169.4718,223.3941,187.846,228.126" style="stroke:#181818;stroke-width:1.0;"/></g><g id="link_Vector_List"><path codeLine="44" d="M179.481,163 C187.144,180.658 190.5165,188.4287 198.2135,206.1657 " fill="none" id="Vector-to-List" style="stroke:#181818;stroke-width:1.0;stroke-dasharray:7.0,7.0;"/><polygon fill="none" points="205.379,222.678,203.7176,203.7772,192.7094,208.5542,205.379,222.678" style="stroke:#181818;stroke-width:1.0;"/></g><g id="link_Stack_Vector"><path codeLine="45" d="M169.5,55 C169.5,72.658 169.5,90.941 169.5,108.678 " fill="none" id="Stack-to-Vector" style="stroke:#181818;stroke-width:1.0;"/><polygon fill="#181818" points="169.5,114.678,173.5,105.678,169.5,109.678,165.5,105.678,169.5,114.678" style="stroke:#181818;stroke-width:1.0;"/></g><g id="link_LinkedList_List"><path codeLine="46" d="M317.974,55.309 C295.853,96.474 258.6416,165.7194 236.5306,206.8644 " fill="none" id="LinkedList-to-List" style="stroke:#181818;stroke-width:1.0;stroke-dasharray:7.0,7.0;"/><polygon fill="none" points="228.01,222.72,241.8158,209.7047,231.2455,204.0242,228.01,222.72" style="stroke:#181818;stroke-width:1.0;"/></g><g id="link_Deque_Queue"><path codeLine="47" d="M514.5,163 C514.5,180.658 514.5,186.941 514.5,204.678 " fill="none" id="Deque-to-Queue" style="stroke:#181818;stroke-width:1.0;"/><polygon fill="none" points="514.5,222.678,520.5,204.678,508.5,204.678,514.5,222.678" style="stroke:#181818;stroke-width:1.0;"/></g><g id="link_LinkedList_Deque"><path codeLine="48" d="M370.425,55 C401.394,72.841 428.5041,88.4586 459.3721,106.2416 " fill="none" id="LinkedList-to-Deque" style="stroke:#181818;stroke-width:1.0;stroke-dasharray:7.0,7.0;"/><polygon fill="none" points="474.969,115.227,462.3672,101.0427,456.377,111.4406,474.969,115.227" style="stroke:#181818;stroke-width:1.0;"/></g><g id="link_ArrayQueue_Deque"><path codeLine="49" d="M514.5,55 C514.5,72.658 514.5,78.941 514.5,96.678 " fill="none" id="ArrayQueue-to-Deque" style="stroke:#181818;stroke-width:1.0;stroke-dasharray:7.0,7.0;"/><polygon fill="none" points="514.5,114.678,520.5,96.678,508.5,96.678,514.5,114.678" style="stroke:#181818;stroke-width:1.0;"/></g><g id="link_PriorityQueue_Queue"><path codeLine="50" d="M407.227,163 C430.049,180.658 447.1966,193.9263 470.1216,211.6633 " fill="none" id="PriorityQueue-to-Queue" style="stroke:#181818;stroke-width:1.0;stroke-dasharray:7.0,7.0;"/><polygon fill="none" points="484.358,222.678,473.7931,206.9178,466.45,216.4088,484.358,222.678" style="stroke:#181818;stroke-width:1.0;"/></g><g id="link_BlockingQueue_Queue"><path codeLine="51" d="M627.254,163 C603.266,180.658 584.7754,194.2707 560.6784,212.0077 " fill="none" id="BlockingQueue-to-Queue" style="stroke:#181818;stroke-width:1.0;stroke-dasharray:7.0,7.0;"/><polygon fill="none" points="546.182,222.678,564.2351,216.8398,557.1216,207.1756,546.182,222.678" style="stroke:#181818;stroke-width:1.0;"/></g><g id="link_HashSet_Set"><path codeLine="52" d="M807.5,163 C807.5,180.658 807.5,186.941 807.5,204.678 " fill="none" id="HashSet-to-Set" style="stroke:#181818;stroke-width:1.0;stroke-dasharray:7.0,7.0;"/><polygon fill="none" points="807.5,222.678,813.5,204.678,801.5,204.678,807.5,222.678" style="stroke:#181818;stroke-width:1.0;"/></g><g id="link_SortedSet_Set"><path codeLine="53" d="M910.075,163 C887.951,180.902 871.4068,194.2894 849.4128,212.0864 " fill="none" id="SortedSet-to-Set" style="stroke:#181818;stroke-width:1.0;"/><polygon fill="none" points="835.42,223.409,853.187,216.7506,845.6386,207.4221,835.42,223.409" style="stroke:#181818;stroke-width:1.0;"/></g><g id="link_TreeSet_SortedSet"><path codeLine="54" d="M938.5,55 C938.5,72.658 938.5,78.941 938.5,96.678 " fill="none" id="TreeSet-to-SortedSet" style="stroke:#181818;stroke-width:1.0;stroke-dasharray:7.0,7.0;"/><polygon fill="none" points="938.5,114.678,944.5,96.678,932.5,96.678,938.5,114.678" style="stroke:#181818;stroke-width:1.0;"/></g></g></svg>