<?xml version="1.0" encoding="UTF-8" standalone="no"?><svg xmlns="http://www.w3.org/2000/svg" xmlns:xlink="http://www.w3.org/1999/xlink" contentScriptType="application/ecmascript" contentStyleType="text/css" height="202px" preserveAspectRatio="none" style="width:260px;height:202px;" version="1.1" viewBox="0 0 260 202" width="260px" zoomAndPan="magnify"><defs><filter height="300%" id="f3tscxwg85jq3" width="300%" x="-1" y="-1"><feGaussianBlur result="blurOut" stdDeviation="2.0"/><feColorMatrix in="blurOut" result="blurOut2" type="matrix" values="0 0 0 0 0 0 0 0 0 0 0 0 0 0 0 0 0 0 .4 0"/><feOffset dx="4.0" dy="4.0" in="blurOut2" result="blurOut3"/><feBlend in="SourceGraphic" in2="blurOut3" mode="normal"/></filter></defs><g><rect codeLine="1" fill="#FEFECE" filter="url(#f3tscxwg85jq3)" height="73.6094" id="Computer" style="stroke:#A80036;stroke-width:1.5;" width="239" x="7" y="115"/><ellipse cx="91.75" cy="131" fill="#ADD1B2" rx="11" ry="11" style="stroke:#A80036;stroke-width:1.0;"/><path d="M94.7188,136.6406 Q94.1406,136.9375 93.5,137.0859 Q92.8594,137.2344 92.1563,137.2344 Q89.6563,137.2344 88.3359,135.5859 Q87.0156,133.9375 87.0156,130.8125 Q87.0156,127.6875 88.3359,126.0313 Q89.6563,124.375 92.1563,124.375 Q92.8594,124.375 93.5078,124.5313 Q94.1563,124.6875 94.7188,124.9844 L94.7188,127.7031 Q94.0938,127.125 93.5,126.8516 Q92.9063,126.5781 92.2813,126.5781 Q90.9375,126.5781 90.25,127.6484 Q89.5625,128.7188 89.5625,130.8125 Q89.5625,132.9063 90.25,133.9766 Q90.9375,135.0469 92.2813,135.0469 Q92.9063,135.0469 93.5,134.7734 Q94.0938,134.5 94.7188,133.9219 L94.7188,136.6406 Z " fill="#000000"/><text fill="#000000" font-family="sans-serif" font-size="12" lengthAdjust="spacing" textLength="61" x="112.25" y="135.1543">Computer</text><line style="stroke:#A80036;stroke-width:1.5;" x1="8" x2="245" y1="147" y2="147"/><line style="stroke:#A80036;stroke-width:1.5;" x1="8" x2="245" y1="155" y2="155"/><text fill="#000000" font-family="sans-serif" font-size="11" lengthAdjust="spacing" textLength="212" x="13" y="169.2104">private Mouse mouse = new Mouse()</text><text fill="#000000" font-family="sans-serif" font-size="11" lengthAdjust="spacing" textLength="227" x="13" y="182.0151">private Moniter monitor = new Monitor()</text><rect codeLine="5" fill="#FEFECE" filter="url(#f3tscxwg85jq3)" height="48" id="Mouse" style="stroke:#A80036;stroke-width:1.5;" width="73" x="35" y="7"/><ellipse cx="50" cy="23" fill="#ADD1B2" rx="11" ry="11" style="stroke:#A80036;stroke-width:1.0;"/><path d="M52.9688,28.6406 Q52.3906,28.9375 51.75,29.0859 Q51.1094,29.2344 50.4063,29.2344 Q47.9063,29.2344 46.5859,27.5859 Q45.2656,25.9375 45.2656,22.8125 Q45.2656,19.6875 46.5859,18.0313 Q47.9063,16.375 50.4063,16.375 Q51.1094,16.375 51.7578,16.5313 Q52.4063,16.6875 52.9688,16.9844 L52.9688,19.7031 Q52.3438,19.125 51.75,18.8516 Q51.1563,18.5781 50.5313,18.5781 Q49.1875,18.5781 48.5,19.6484 Q47.8125,20.7188 47.8125,22.8125 Q47.8125,24.9063 48.5,25.9766 Q49.1875,27.0469 50.5313,27.0469 Q51.1563,27.0469 51.75,26.7734 Q52.3438,26.5 52.9688,25.9219 L52.9688,28.6406 Z " fill="#000000"/><text fill="#000000" font-family="sans-serif" font-size="12" lengthAdjust="spacing" textLength="41" x="64" y="27.1543">Mouse</text><line style="stroke:#A80036;stroke-width:1.5;" x1="36" x2="107" y1="39" y2="39"/><line style="stroke:#A80036;stroke-width:1.5;" x1="36" x2="107" y1="47" y2="47"/><rect codeLine="6" fill="#FEFECE" filter="url(#f3tscxwg85jq3)" height="48" id="Monitor" style="stroke:#A80036;stroke-width:1.5;" width="79" x="143" y="7"/><ellipse cx="158" cy="23" fill="#ADD1B2" rx="11" ry="11" style="stroke:#A80036;stroke-width:1.0;"/><path d="M160.9688,28.6406 Q160.3906,28.9375 159.75,29.0859 Q159.1094,29.2344 158.4063,29.2344 Q155.9063,29.2344 154.5859,27.5859 Q153.2656,25.9375 153.2656,22.8125 Q153.2656,19.6875 154.5859,18.0313 Q155.9063,16.375 158.4063,16.375 Q159.1094,16.375 159.7578,16.5313 Q160.4063,16.6875 160.9688,16.9844 L160.9688,19.7031 Q160.3438,19.125 159.75,18.8516 Q159.1563,18.5781 158.5313,18.5781 Q157.1875,18.5781 156.5,19.6484 Q155.8125,20.7188 155.8125,22.8125 Q155.8125,24.9063 156.5,25.9766 Q157.1875,27.0469 158.5313,27.0469 Q159.1563,27.0469 159.75,26.7734 Q160.3438,26.5 160.9688,25.9219 L160.9688,28.6406 Z " fill="#000000"/><text fill="#000000" font-family="sans-serif" font-size="12" lengthAdjust="spacing" textLength="47" x="172" y="27.1543">Monitor</text><line style="stroke:#A80036;stroke-width:1.5;" x1="144" x2="221" y1="39" y2="39"/><line style="stroke:#A80036;stroke-width:1.5;" x1="144" x2="221" y1="47" y2="47"/><path codeLine="8" d="M82.4979,55.1953 C88.6931,68.8249 96.6615,86.3552 104.1112,102.7445 " fill="none" id="Mouse-to-Computer" style="stroke:#A80036;stroke-width:1.0;"/><polygon fill="#A80036" points="109.6689,114.9716,110.8276,107.8542,104.7033,104.0472,103.5446,111.1646,109.6689,114.9716" style="stroke:#A80036;stroke-width:1.0;"/><path codeLine="9" d="M171.3022,55.1953 C164.9943,68.8249 156.881,86.3552 149.2959,102.7445 " fill="none" id="Monitor-to-Computer" style="stroke:#A80036;stroke-width:1.0;"/><polygon fill="#A80036" points="143.6371,114.9716,149.7872,111.2065,148.6772,104.0814,142.5271,107.8464,143.6371,114.9716" style="stroke:#A80036;stroke-width:1.0;"/></g></svg>