<?xml version="1.0" encoding="UTF-8" standalone="no"?><svg xmlns="http://www.w3.org/2000/svg" xmlns:xlink="http://www.w3.org/1999/xlink" contentScriptType="application/ecmascript" contentStyleType="text/css" height="190px" preserveAspectRatio="none" style="width:144px;height:190px;" version="1.1" viewBox="0 0 144 190" width="144px" zoomAndPan="magnify"><defs><filter height="300%" id="f15go4uzrxjhh4" width="300%" x="-1" y="-1"><feGaussianBlur result="blurOut" stdDeviation="2.0"/><feColorMatrix in="blurOut" result="blurOut2" type="matrix" values="0 0 0 0 0 0 0 0 0 0 0 0 0 0 0 0 0 0 .4 0"/><feOffset dx="4.0" dy="4.0" in="blurOut2" result="blurOut3"/><feBlend in="SourceGraphic" in2="blurOut3" mode="normal"/></filter></defs><g><rect codeLine="1" fill="#FEFECE" filter="url(#f15go4uzrxjhh4)" height="48" id="Water" style="stroke:#A80036;stroke-width:1.5;" width="69" x="34" y="128"/><ellipse cx="49" cy="144" fill="#ADD1B2" rx="11" ry="11" style="stroke:#A80036;stroke-width:1.0;"/><path d="M51.9688,149.6406 Q51.3906,149.9375 50.75,150.0859 Q50.1094,150.2344 49.4063,150.2344 Q46.9063,150.2344 45.5859,148.5859 Q44.2656,146.9375 44.2656,143.8125 Q44.2656,140.6875 45.5859,139.0313 Q46.9063,137.375 49.4063,137.375 Q50.1094,137.375 50.7578,137.5313 Q51.4063,137.6875 51.9688,137.9844 L51.9688,140.7031 Q51.3438,140.125 50.75,139.8516 Q50.1563,139.5781 49.5313,139.5781 Q48.1875,139.5781 47.5,140.6484 Q46.8125,141.7188 46.8125,143.8125 Q46.8125,145.9063 47.5,146.9766 Q48.1875,148.0469 49.5313,148.0469 Q50.1563,148.0469 50.75,147.7734 Q51.3438,147.5 51.9688,146.9219 L51.9688,149.6406 Z " fill="#000000"/><text fill="#000000" font-family="sans-serif" font-size="12" lengthAdjust="spacing" textLength="37" x="63" y="148.1543">Water</text><line style="stroke:#A80036;stroke-width:1.5;" x1="35" x2="102" y1="160" y2="160"/><line style="stroke:#A80036;stroke-width:1.5;" x1="35" x2="102" y1="168" y2="168"/><rect codeLine="2" fill="#FEFECE" filter="url(#f15go4uzrxjhh4)" height="60.8047" id="Human" style="stroke:#A80036;stroke-width:1.5;" width="123" x="7" y="7"/><ellipse cx="43.15" cy="23" fill="#ADD1B2" rx="11" ry="11" style="stroke:#A80036;stroke-width:1.0;"/><path d="M46.1188,28.6406 Q45.5406,28.9375 44.9,29.0859 Q44.2594,29.2344 43.5563,29.2344 Q41.0563,29.2344 39.7359,27.5859 Q38.4156,25.9375 38.4156,22.8125 Q38.4156,19.6875 39.7359,18.0313 Q41.0563,16.375 43.5563,16.375 Q44.2594,16.375 44.9078,16.5313 Q45.5563,16.6875 46.1188,16.9844 L46.1188,19.7031 Q45.4938,19.125 44.9,18.8516 Q44.3063,18.5781 43.6813,18.5781 Q42.3375,18.5781 41.65,19.6484 Q40.9625,20.7188 40.9625,22.8125 Q40.9625,24.9063 41.65,25.9766 Q42.3375,27.0469 43.6813,27.0469 Q44.3063,27.0469 44.9,26.7734 Q45.4938,26.5 46.1188,25.9219 L46.1188,28.6406 Z " fill="#000000"/><text fill="#000000" font-family="sans-serif" font-size="12" lengthAdjust="spacing" textLength="44" x="61.85" y="27.1543">Human</text><line style="stroke:#A80036;stroke-width:1.5;" x1="8" x2="129" y1="39" y2="39"/><text fill="#000000" font-family="sans-serif" font-size="11" lengthAdjust="spacing" textLength="111" x="13" y="53.2104">private Water water</text><line style="stroke:#A80036;stroke-width:1.5;" x1="8" x2="129" y1="59.8047" y2="59.8047"/><path codeLine="5" d="M68.5,68.1839 C68.5,85.1131 68.5,106.0245 68.5,122.7248 " fill="none" id="Human-to-Water" style="stroke:#A80036;stroke-width:1.0;"/><polygon fill="#A80036" points="68.5,127.7634,72.5,118.7634,68.5,122.7634,64.5,118.7634,68.5,127.7634" style="stroke:#A80036;stroke-width:1.0;"/></g></svg>