<?xml version="1.0" encoding="UTF-8" standalone="no"?><svg xmlns="http://www.w3.org/2000/svg" xmlns:xlink="http://www.w3.org/1999/xlink" contentScriptType="application/ecmascript" contentStyleType="text/css" height="228px" preserveAspectRatio="none" style="width:484px;height:228px;" version="1.1" viewBox="0 0 484 228" width="484px" zoomAndPan="magnify"><defs><filter height="300%" id="fcgcxzxstt0qb" width="300%" x="-1" y="-1"><feGaussianBlur result="blurOut" stdDeviation="2.0"/><feColorMatrix in="blurOut" result="blurOut2" type="matrix" values="0 0 0 0 0 0 0 0 0 0 0 0 0 0 0 0 0 0 .4 0"/><feOffset dx="4.0" dy="4.0" in="blurOut2" result="blurOut3"/><feBlend in="SourceGraphic" in2="blurOut3" mode="normal"/></filter></defs><g><rect codeLine="1" fill="#FEFECE" filter="url(#fcgcxzxstt0qb)" height="48" id="IDCard" style="stroke:#A80036;stroke-width:1.5;" width="73" x="7" y="166"/><ellipse cx="22" cy="182" fill="#ADD1B2" rx="11" ry="11" style="stroke:#A80036;stroke-width:1.0;"/><path d="M24.9688,187.6406 Q24.3906,187.9375 23.75,188.0859 Q23.1094,188.2344 22.4063,188.2344 Q19.9063,188.2344 18.5859,186.5859 Q17.2656,184.9375 17.2656,181.8125 Q17.2656,178.6875 18.5859,177.0313 Q19.9063,175.375 22.4063,175.375 Q23.1094,175.375 23.7578,175.5313 Q24.4063,175.6875 24.9688,175.9844 L24.9688,178.7031 Q24.3438,178.125 23.75,177.8516 Q23.1563,177.5781 22.5313,177.5781 Q21.1875,177.5781 20.5,178.6484 Q19.8125,179.7188 19.8125,181.8125 Q19.8125,183.9063 20.5,184.9766 Q21.1875,186.0469 22.5313,186.0469 Q23.1563,186.0469 23.75,185.7734 Q24.3438,185.5 24.9688,184.9219 L24.9688,187.6406 Z " fill="#000000"/><text fill="#000000" font-family="sans-serif" font-size="12" lengthAdjust="spacing" textLength="41" x="36" y="186.1543">IDCard</text><line style="stroke:#A80036;stroke-width:1.5;" x1="8" x2="79" y1="198" y2="198"/><line style="stroke:#A80036;stroke-width:1.5;" x1="8" x2="79" y1="206" y2="206"/><rect codeLine="2" fill="#FEFECE" filter="url(#fcgcxzxstt0qb)" height="48" id="Person" style="stroke:#A80036;stroke-width:1.5;" width="76" x="115.5" y="166"/><ellipse cx="130.5" cy="182" fill="#ADD1B2" rx="11" ry="11" style="stroke:#A80036;stroke-width:1.0;"/><path d="M133.4688,187.6406 Q132.8906,187.9375 132.25,188.0859 Q131.6094,188.2344 130.9063,188.2344 Q128.4063,188.2344 127.0859,186.5859 Q125.7656,184.9375 125.7656,181.8125 Q125.7656,178.6875 127.0859,177.0313 Q128.4063,175.375 130.9063,175.375 Q131.6094,175.375 132.2578,175.5313 Q132.9063,175.6875 133.4688,175.9844 L133.4688,178.7031 Q132.8438,178.125 132.25,177.8516 Q131.6563,177.5781 131.0313,177.5781 Q129.6875,177.5781 129,178.6484 Q128.3125,179.7188 128.3125,181.8125 Q128.3125,183.9063 129,184.9766 Q129.6875,186.0469 131.0313,186.0469 Q131.6563,186.0469 132.25,185.7734 Q132.8438,185.5 133.4688,184.9219 L133.4688,187.6406 Z " fill="#000000"/><text fill="#000000" font-family="sans-serif" font-size="12" lengthAdjust="spacing" textLength="44" x="144.5" y="186.1543">Person</text><line style="stroke:#A80036;stroke-width:1.5;" x1="116.5" x2="190.5" y1="198" y2="198"/><line style="stroke:#A80036;stroke-width:1.5;" x1="116.5" x2="190.5" y1="206" y2="206"/><rect codeLine="3" fill="#FEFECE" filter="url(#fcgcxzxstt0qb)" height="48" id="PersonDao" style="stroke:#A80036;stroke-width:1.5;" width="101" x="227" y="166"/><ellipse cx="242" cy="182" fill="#ADD1B2" rx="11" ry="11" style="stroke:#A80036;stroke-width:1.0;"/><path d="M244.9688,187.6406 Q244.3906,187.9375 243.75,188.0859 Q243.1094,188.2344 242.4063,188.2344 Q239.9063,188.2344 238.5859,186.5859 Q237.2656,184.9375 237.2656,181.8125 Q237.2656,178.6875 238.5859,177.0313 Q239.9063,175.375 242.4063,175.375 Q243.1094,175.375 243.7578,175.5313 Q244.4063,175.6875 244.9688,175.9844 L244.9688,178.7031 Q244.3438,178.125 243.75,177.8516 Q243.1563,177.5781 242.5313,177.5781 Q241.1875,177.5781 240.5,178.6484 Q239.8125,179.7188 239.8125,181.8125 Q239.8125,183.9063 240.5,184.9766 Q241.1875,186.0469 242.5313,186.0469 Q243.1563,186.0469 243.75,185.7734 Q244.3438,185.5 244.9688,184.9219 L244.9688,187.6406 Z " fill="#000000"/><text fill="#000000" font-family="sans-serif" font-size="12" lengthAdjust="spacing" textLength="69" x="256" y="186.1543">PersonDao</text><line style="stroke:#A80036;stroke-width:1.5;" x1="228" x2="327" y1="198" y2="198"/><line style="stroke:#A80036;stroke-width:1.5;" x1="228" x2="327" y1="206" y2="206"/><rect codeLine="4" fill="#FEFECE" filter="url(#fcgcxzxstt0qb)" height="48" id="Department" style="stroke:#A80036;stroke-width:1.5;" width="107" x="363" y="166"/><ellipse cx="378" cy="182" fill="#ADD1B2" rx="11" ry="11" style="stroke:#A80036;stroke-width:1.0;"/><path d="M380.9688,187.6406 Q380.3906,187.9375 379.75,188.0859 Q379.1094,188.2344 378.4063,188.2344 Q375.9063,188.2344 374.5859,186.5859 Q373.2656,184.9375 373.2656,181.8125 Q373.2656,178.6875 374.5859,177.0313 Q375.9063,175.375 378.4063,175.375 Q379.1094,175.375 379.7578,175.5313 Q380.4063,175.6875 380.9688,175.9844 L380.9688,178.7031 Q380.3438,178.125 379.75,177.8516 Q379.1563,177.5781 378.5313,177.5781 Q377.1875,177.5781 376.5,178.6484 Q375.8125,179.7188 375.8125,181.8125 Q375.8125,183.9063 376.5,184.9766 Q377.1875,186.0469 378.5313,186.0469 Q379.1563,186.0469 379.75,185.7734 Q380.3438,185.5 380.9688,184.9219 L380.9688,187.6406 Z " fill="#000000"/><text fill="#000000" font-family="sans-serif" font-size="12" lengthAdjust="spacing" textLength="75" x="392" y="186.1543">Department</text><line style="stroke:#A80036;stroke-width:1.5;" x1="364" x2="469" y1="198" y2="198"/><line style="stroke:#A80036;stroke-width:1.5;" x1="364" x2="469" y1="206" y2="206"/><rect codeLine="5" fill="#FEFECE" filter="url(#fcgcxzxstt0qb)" height="99.2188" id="PersonServiceBean" style="stroke:#A80036;stroke-width:1.5;" width="220" x="105.5" y="7"/><ellipse cx="150.75" cy="23" fill="#ADD1B2" rx="11" ry="11" style="stroke:#A80036;stroke-width:1.0;"/><path d="M153.7188,28.6406 Q153.1406,28.9375 152.5,29.0859 Q151.8594,29.2344 151.1563,29.2344 Q148.6563,29.2344 147.3359,27.5859 Q146.0156,25.9375 146.0156,22.8125 Q146.0156,19.6875 147.3359,18.0313 Q148.6563,16.375 151.1563,16.375 Q151.8594,16.375 152.5078,16.5313 Q153.1563,16.6875 153.7188,16.9844 L153.7188,19.7031 Q153.0938,19.125 152.5,18.8516 Q151.9063,18.5781 151.2813,18.5781 Q149.9375,18.5781 149.25,19.6484 Q148.5625,20.7188 148.5625,22.8125 Q148.5625,24.9063 149.25,25.9766 Q149.9375,27.0469 151.2813,27.0469 Q151.9063,27.0469 152.5,26.7734 Q153.0938,26.5 153.7188,25.9219 L153.7188,28.6406 Z " fill="#000000"/><text fill="#000000" font-family="sans-serif" font-size="12" lengthAdjust="spacing" textLength="121" x="171.25" y="27.1543">PersonServiceBean</text><line style="stroke:#A80036;stroke-width:1.5;" x1="106.5" x2="324.5" y1="39" y2="39"/><text fill="#000000" font-family="sans-serif" font-size="11" lengthAdjust="spacing" textLength="132" x="111.5" y="53.2104">personDao: PersonDao</text><line style="stroke:#A80036;stroke-width:1.5;" x1="106.5" x2="324.5" y1="59.8047" y2="59.8047"/><text fill="#000000" font-family="sans-serif" font-size="11" lengthAdjust="spacing" textLength="154" x="111.5" y="74.0151">save(person: Person): void</text><text fill="#000000" font-family="sans-serif" font-size="11" lengthAdjust="spacing" textLength="208" x="111.5" y="86.8198">getIDCard(personid: Integer): IDCard</text><text fill="#000000" font-family="sans-serif" font-size="11" lengthAdjust="spacing" textLength="77" x="111.5" y="99.6245">modify(): void</text><path codeLine="12" d="M151.4535,106.2105 C126.919,125.2533 99.8296,146.279 78.9247,162.5047 " fill="none" id="PersonServiceBean-to-IDCard" style="stroke:#A80036;stroke-width:1.0;stroke-dasharray:7.0,7.0;"/><polygon fill="#A80036" points="74.8287,165.6838,84.391,163.3254,78.7786,162.6181,79.4859,157.0056,74.8287,165.6838" style="stroke:#A80036;stroke-width:1.0;"/><path codeLine="13" d="M192.4135,106.2105 C183.8644,124.6185 174.4548,144.8795 167.0302,160.8664 " fill="none" id="PersonServiceBean-to-Person" style="stroke:#A80036;stroke-width:1.0;stroke-dasharray:7.0,7.0;"/><polygon fill="#A80036" points="164.7929,165.6838,172.2117,159.2061,166.899,161.149,164.9561,155.8363,164.7929,165.6838" style="stroke:#A80036;stroke-width:1.0;"/><path codeLine="14" d="M238.5865,106.2105 C247.1356,124.6185 256.5452,144.8795 263.9698,160.8664 " fill="none" id="PersonServiceBean-to-PersonDao" style="stroke:#A80036;stroke-width:1.0;stroke-dasharray:7.0,7.0;"/><polygon fill="#A80036" points="266.2071,165.6838,266.0439,155.8363,264.101,161.149,258.7883,159.2061,266.2071,165.6838" style="stroke:#A80036;stroke-width:1.0;"/><path codeLine="15" d="M290.0593,106.0208 C319.2088,125.3812 351.4835,146.8174 376.129,163.1864 " fill="none" id="PersonServiceBean-to-Department" style="stroke:#A80036;stroke-width:1.0;stroke-dasharray:7.0,7.0;"/><polygon fill="#A80036" points="380.3276,165.9751,375.0435,157.6638,376.1625,163.2089,370.6175,164.3279,380.3276,165.9751" style="stroke:#A80036;stroke-width:1.0;"/></g></svg>