<?xml version="1.0" encoding="UTF-8" standalone="no"?><svg xmlns="http://www.w3.org/2000/svg" xmlns:xlink="http://www.w3.org/1999/xlink" contentScriptType="application/ecmascript" contentStyleType="text/css" height="202px" preserveAspectRatio="none" style="width:174px;height:202px;" version="1.1" viewBox="0 0 174 202" width="174px" zoomAndPan="magnify"><defs><filter height="300%" id="f85kga4un3bql" width="300%" x="-1" y="-1"><feGaussianBlur result="blurOut" stdDeviation="2.0"/><feColorMatrix in="blurOut" result="blurOut2" type="matrix" values="0 0 0 0 0 0 0 0 0 0 0 0 0 0 0 0 0 0 .4 0"/><feOffset dx="4.0" dy="4.0" in="blurOut2" result="blurOut3"/><feBlend in="SourceGraphic" in2="blurOut3" mode="normal"/></filter></defs><g><rect codeLine="1" fill="#FEFECE" filter="url(#f85kga4un3bql)" height="73.6094" id="DaoSupport" style="stroke:#A80036;stroke-width:1.5;" width="153" x="7" y="115"/><ellipse cx="42.7" cy="131" fill="#ADD1B2" rx="11" ry="11" style="stroke:#A80036;stroke-width:1.0;"/><path d="M45.6688,136.6406 Q45.0906,136.9375 44.45,137.0859 Q43.8094,137.2344 43.1063,137.2344 Q40.6063,137.2344 39.2859,135.5859 Q37.9656,133.9375 37.9656,130.8125 Q37.9656,127.6875 39.2859,126.0313 Q40.6063,124.375 43.1063,124.375 Q43.8094,124.375 44.4578,124.5313 Q45.1063,124.6875 45.6688,124.9844 L45.6688,127.7031 Q45.0438,127.125 44.45,126.8516 Q43.8563,126.5781 43.2313,126.5781 Q41.8875,126.5781 41.2,127.6484 Q40.5125,128.7188 40.5125,130.8125 Q40.5125,132.9063 41.2,133.9766 Q41.8875,135.0469 43.2313,135.0469 Q43.8563,135.0469 44.45,134.7734 Q45.0438,134.5 45.6688,133.9219 L45.6688,136.6406 Z " fill="#000000"/><text fill="#000000" font-family="sans-serif" font-size="12" lengthAdjust="spacing" textLength="75" x="61.3" y="135.1543">DaoSupport</text><line style="stroke:#A80036;stroke-width:1.5;" x1="8" x2="159" y1="147" y2="147"/><line style="stroke:#A80036;stroke-width:1.5;" x1="8" x2="159" y1="155" y2="155"/><text fill="#000000" font-family="sans-serif" font-size="11" lengthAdjust="spacing" textLength="141" x="13" y="169.2104">save(entity: Object): void</text><text fill="#000000" font-family="sans-serif" font-size="11" lengthAdjust="spacing" textLength="128" x="13" y="182.0151">delete(id: Object): void</text><rect codeLine="5" fill="#FEFECE" filter="url(#f85kga4un3bql)" height="48" id="PersonServiceBean" style="stroke:#A80036;stroke-width:1.5;" width="153" x="7" y="7"/><ellipse cx="22" cy="23" fill="#ADD1B2" rx="11" ry="11" style="stroke:#A80036;stroke-width:1.0;"/><path d="M24.9688,28.6406 Q24.3906,28.9375 23.75,29.0859 Q23.1094,29.2344 22.4063,29.2344 Q19.9063,29.2344 18.5859,27.5859 Q17.2656,25.9375 17.2656,22.8125 Q17.2656,19.6875 18.5859,18.0313 Q19.9063,16.375 22.4063,16.375 Q23.1094,16.375 23.7578,16.5313 Q24.4063,16.6875 24.9688,16.9844 L24.9688,19.7031 Q24.3438,19.125 23.75,18.8516 Q23.1563,18.5781 22.5313,18.5781 Q21.1875,18.5781 20.5,19.6484 Q19.8125,20.7188 19.8125,22.8125 Q19.8125,24.9063 20.5,25.9766 Q21.1875,27.0469 22.5313,27.0469 Q23.1563,27.0469 23.75,26.7734 Q24.3438,26.5 24.9688,25.9219 L24.9688,28.6406 Z " fill="#000000"/><text fill="#000000" font-family="sans-serif" font-size="12" lengthAdjust="spacing" textLength="121" x="36" y="27.1543">PersonServiceBean</text><line style="stroke:#A80036;stroke-width:1.5;" x1="8" x2="159" y1="39" y2="39"/><line style="stroke:#A80036;stroke-width:1.5;" x1="8" x2="159" y1="47" y2="47"/><path codeLine="7" d="M83.5,55.1953 C83.5,66.6869 83.5,80.9515 83.5,94.9672 " fill="none" id="PersonServiceBean-to-DaoSupport" style="stroke:#A80036;stroke-width:1.0;"/><polygon fill="none" points="90.5001,94.9716,83.5,114.9716,76.5001,94.9716,90.5001,94.9716" style="stroke:#A80036;stroke-width:1.0;"/></g></svg>