<?xml version="1.0" encoding="UTF-8" standalone="no"?><svg xmlns="http://www.w3.org/2000/svg" xmlns:xlink="http://www.w3.org/1999/xlink" contentScriptType="application/ecmascript" contentStyleType="text/css" height="228px" preserveAspectRatio="none" style="width:255px;height:228px;" version="1.1" viewBox="0 0 255 228" width="255px" zoomAndPan="magnify"><defs><filter height="300%" id="f115y51jxt8z5g" width="300%" x="-1" y="-1"><feGaussianBlur result="blurOut" stdDeviation="2.0"/><feColorMatrix in="blurOut" result="blurOut2" type="matrix" values="0 0 0 0 0 0 0 0 0 0 0 0 0 0 0 0 0 0 .4 0"/><feOffset dx="4.0" dy="4.0" in="blurOut2" result="blurOut3"/><feBlend in="SourceGraphic" in2="blurOut3" mode="normal"/></filter></defs><g><rect codeLine="1" fill="#FEFECE" filter="url(#f115y51jxt8z5g)" height="99.2188" id="Computer" style="stroke:#A80036;stroke-width:1.5;" width="234" x="7" y="115"/><ellipse cx="89.25" cy="131" fill="#ADD1B2" rx="11" ry="11" style="stroke:#A80036;stroke-width:1.0;"/><path d="M92.2188,136.6406 Q91.6406,136.9375 91,137.0859 Q90.3594,137.2344 89.6563,137.2344 Q87.1563,137.2344 85.8359,135.5859 Q84.5156,133.9375 84.5156,130.8125 Q84.5156,127.6875 85.8359,126.0313 Q87.1563,124.375 89.6563,124.375 Q90.3594,124.375 91.0078,124.5313 Q91.6563,124.6875 92.2188,124.9844 L92.2188,127.7031 Q91.5938,127.125 91,126.8516 Q90.4063,126.5781 89.7813,126.5781 Q88.4375,126.5781 87.75,127.6484 Q87.0625,128.7188 87.0625,130.8125 Q87.0625,132.9063 87.75,133.9766 Q88.4375,135.0469 89.7813,135.0469 Q90.4063,135.0469 91,134.7734 Q91.5938,134.5 92.2188,133.9219 L92.2188,136.6406 Z " fill="#000000"/><text fill="#000000" font-family="sans-serif" font-size="12" lengthAdjust="spacing" textLength="61" x="109.75" y="135.1543">Computer</text><line style="stroke:#A80036;stroke-width:1.5;" x1="8" x2="240" y1="147" y2="147"/><text fill="#000000" font-family="sans-serif" font-size="11" lengthAdjust="spacing" textLength="127" x="13" y="161.2104">private Mouse mouse;</text><text fill="#000000" font-family="sans-serif" font-size="11" lengthAdjust="spacing" textLength="137" x="13" y="174.0151">private Monitor monitor;</text><line style="stroke:#A80036;stroke-width:1.5;" x1="8" x2="240" y1="180.6094" y2="180.6094"/><text fill="#000000" font-family="sans-serif" font-size="11" lengthAdjust="spacing" textLength="207" x="13" y="194.8198">public void setMouse(Mouse mouse)</text><text fill="#000000" font-family="sans-serif" font-size="11" lengthAdjust="spacing" textLength="222" x="13" y="207.6245">public void setMonitor(Monitor monitor)</text><rect codeLine="8" fill="#FEFECE" filter="url(#f115y51jxt8z5g)" height="48" id="Mouse" style="stroke:#A80036;stroke-width:1.5;" width="73" x="32.5" y="7"/><ellipse cx="47.5" cy="23" fill="#ADD1B2" rx="11" ry="11" style="stroke:#A80036;stroke-width:1.0;"/><path d="M50.4688,28.6406 Q49.8906,28.9375 49.25,29.0859 Q48.6094,29.2344 47.9063,29.2344 Q45.4063,29.2344 44.0859,27.5859 Q42.7656,25.9375 42.7656,22.8125 Q42.7656,19.6875 44.0859,18.0313 Q45.4063,16.375 47.9063,16.375 Q48.6094,16.375 49.2578,16.5313 Q49.9063,16.6875 50.4688,16.9844 L50.4688,19.7031 Q49.8438,19.125 49.25,18.8516 Q48.6563,18.5781 48.0313,18.5781 Q46.6875,18.5781 46,19.6484 Q45.3125,20.7188 45.3125,22.8125 Q45.3125,24.9063 46,25.9766 Q46.6875,27.0469 48.0313,27.0469 Q48.6563,27.0469 49.25,26.7734 Q49.8438,26.5 50.4688,25.9219 L50.4688,28.6406 Z " fill="#000000"/><text fill="#000000" font-family="sans-serif" font-size="12" lengthAdjust="spacing" textLength="41" x="61.5" y="27.1543">Mouse</text><line style="stroke:#A80036;stroke-width:1.5;" x1="33.5" x2="104.5" y1="39" y2="39"/><line style="stroke:#A80036;stroke-width:1.5;" x1="33.5" x2="104.5" y1="47" y2="47"/><rect codeLine="9" fill="#FEFECE" filter="url(#f115y51jxt8z5g)" height="48" id="Monitor" style="stroke:#A80036;stroke-width:1.5;" width="79" x="140.5" y="7"/><ellipse cx="155.5" cy="23" fill="#ADD1B2" rx="11" ry="11" style="stroke:#A80036;stroke-width:1.0;"/><path d="M158.4688,28.6406 Q157.8906,28.9375 157.25,29.0859 Q156.6094,29.2344 155.9063,29.2344 Q153.4063,29.2344 152.0859,27.5859 Q150.7656,25.9375 150.7656,22.8125 Q150.7656,19.6875 152.0859,18.0313 Q153.4063,16.375 155.9063,16.375 Q156.6094,16.375 157.2578,16.5313 Q157.9063,16.6875 158.4688,16.9844 L158.4688,19.7031 Q157.8438,19.125 157.25,18.8516 Q156.6563,18.5781 156.0313,18.5781 Q154.6875,18.5781 154,19.6484 Q153.3125,20.7188 153.3125,22.8125 Q153.3125,24.9063 154,25.9766 Q154.6875,27.0469 156.0313,27.0469 Q156.6563,27.0469 157.25,26.7734 Q157.8438,26.5 158.4688,25.9219 L158.4688,28.6406 Z " fill="#000000"/><text fill="#000000" font-family="sans-serif" font-size="12" lengthAdjust="spacing" textLength="47" x="169.5" y="27.1543">Monitor</text><line style="stroke:#A80036;stroke-width:1.5;" x1="141.5" x2="218.5" y1="39" y2="39"/><line style="stroke:#A80036;stroke-width:1.5;" x1="141.5" x2="218.5" y1="47" y2="47"/><path codeLine="11" d="M78.9601,55.1758 C84.4652,68.5382 91.5798,85.8072 98.5216,102.657 " fill="none" id="Mouse-to-Computer" style="stroke:#A80036;stroke-width:1.0;"/><polygon fill="#FFFFFF" points="103.5203,114.7903,104.9332,107.719,98.9492,103.695,97.5363,110.7664,103.5203,114.7903" style="stroke:#A80036;stroke-width:1.0;"/><path codeLine="12" d="M169.8588,55.1758 C164.2536,68.5382 157.0097,85.8072 149.9416,102.657 " fill="none" id="Monitor-to-Computer" style="stroke:#A80036;stroke-width:1.0;"/><polygon fill="#FFFFFF" points="144.852,114.7903,150.8616,110.8047,149.4939,103.7245,143.4843,107.7101,144.852,114.7903" style="stroke:#A80036;stroke-width:1.0;"/></g></svg>