<?xml version="1.0" encoding="UTF-8" standalone="no"?><svg xmlns="http://www.w3.org/2000/svg" xmlns:xlink="http://www.w3.org/1999/xlink" contentScriptType="application/ecmascript" contentStyleType="text/css" height="202px" preserveAspectRatio="none" style="width:207px;height:202px;" version="1.1" viewBox="0 0 207 202" width="207px" zoomAndPan="magnify"><defs><filter height="300%" id="fpviu142bljke" width="300%" x="-1" y="-1"><feGaussianBlur result="blurOut" stdDeviation="2.0"/><feColorMatrix in="blurOut" result="blurOut2" type="matrix" values="0 0 0 0 0 0 0 0 0 0 0 0 0 0 0 0 0 0 .4 0"/><feOffset dx="4.0" dy="4.0" in="blurOut2" result="blurOut3"/><feBlend in="SourceGraphic" in2="blurOut3" mode="normal"/></filter></defs><g><rect codeLine="1" fill="#FEFECE" filter="url(#fpviu142bljke)" height="60.8047" id="PersonService" style="stroke:#A80036;stroke-width:1.5;" width="186" x="7" y="128"/><ellipse cx="51.25" cy="144" fill="#B4A7E5" rx="11" ry="11" style="stroke:#A80036;stroke-width:1.0;"/><path d="M47.1719,139.7656 L47.1719,137.6094 L54.5625,137.6094 L54.5625,139.7656 L52.0938,139.7656 L52.0938,147.8438 L54.5625,147.8438 L54.5625,150 L47.1719,150 L47.1719,147.8438 L49.6406,147.8438 L49.6406,139.7656 L47.1719,139.7656 Z " fill="#000000"/><text fill="#000000" font-family="sans-serif" font-size="12" font-style="italic" lengthAdjust="spacing" textLength="89" x="71.75" y="148.1543">PersonService</text><line style="stroke:#A80036;stroke-width:1.5;" x1="8" x2="192" y1="160" y2="160"/><line style="stroke:#A80036;stroke-width:1.5;" x1="8" x2="192" y1="168" y2="168"/><text fill="#000000" font-family="sans-serif" font-size="11" lengthAdjust="spacing" textLength="174" x="13" y="182.2104">public delete(id: Interger): void</text><rect codeLine="4" fill="#FEFECE" filter="url(#fpviu142bljke)" height="60.8047" id="PersonServiceBean" style="stroke:#A80036;stroke-width:1.5;" width="186" x="7" y="7"/><ellipse cx="36.85" cy="23" fill="#ADD1B2" rx="11" ry="11" style="stroke:#A80036;stroke-width:1.0;"/><path d="M39.8188,28.6406 Q39.2406,28.9375 38.6,29.0859 Q37.9594,29.2344 37.2563,29.2344 Q34.7563,29.2344 33.4359,27.5859 Q32.1156,25.9375 32.1156,22.8125 Q32.1156,19.6875 33.4359,18.0313 Q34.7563,16.375 37.2563,16.375 Q37.9594,16.375 38.6078,16.5313 Q39.2563,16.6875 39.8188,16.9844 L39.8188,19.7031 Q39.1938,19.125 38.6,18.8516 Q38.0063,18.5781 37.3813,18.5781 Q36.0375,18.5781 35.35,19.6484 Q34.6625,20.7188 34.6625,22.8125 Q34.6625,24.9063 35.35,25.9766 Q36.0375,27.0469 37.3813,27.0469 Q38.0063,27.0469 38.6,26.7734 Q39.1938,26.5 39.8188,25.9219 L39.8188,28.6406 Z " fill="#000000"/><text fill="#000000" font-family="sans-serif" font-size="12" lengthAdjust="spacing" textLength="121" x="54.15" y="27.1543">PersonServiceBean</text><line style="stroke:#A80036;stroke-width:1.5;" x1="8" x2="192" y1="39" y2="39"/><line style="stroke:#A80036;stroke-width:1.5;" x1="8" x2="192" y1="47" y2="47"/><text fill="#000000" font-family="sans-serif" font-size="11" lengthAdjust="spacing" textLength="174" x="13" y="61.2104">public delete(id: Interger): void</text><path codeLine="7" d="M100,68.0334 C100,80.0708 100,94.2256 100,107.7182 " fill="none" id="PersonServiceBean-to-PersonService" style="stroke:#A80036;stroke-width:1.0;stroke-dasharray:7.0,7.0;"/><polygon fill="none" points="107.0001,107.9764,100,127.9764,93.0001,107.9763,107.0001,107.9764" style="stroke:#A80036;stroke-width:1.0;"/></g></svg>