<?xml version="1.0" encoding="UTF-8" standalone="no"?><svg xmlns="http://www.w3.org/2000/svg" xmlns:xlink="http://www.w3.org/1999/xlink" contentScriptType="application/ecmascript" contentStyleType="text/css" height="228px" preserveAspectRatio="none" style="width:287px;height:228px;" version="1.1" viewBox="0 0 287 228" width="287px" zoomAndPan="magnify"><defs><filter height="300%" id="f4x3mza3xt9tq" width="300%" x="-1" y="-1"><feGaussianBlur result="blurOut" stdDeviation="2.0"/><feColorMatrix in="blurOut" result="blurOut2" type="matrix" values="0 0 0 0 0 0 0 0 0 0 0 0 0 0 0 0 0 0 .4 0"/><feOffset dx="4.0" dy="4.0" in="blurOut2" result="blurOut3"/><feBlend in="SourceGraphic" in2="blurOut3" mode="normal"/></filter></defs><g><rect codeLine="3" fill="#FEFECE" filter="url(#f4x3mza3xt9tq)" height="48" id="A" style="stroke:#A80036;stroke-width:1.5;" width="40" x="7" y="166"/><ellipse cx="22" cy="182" fill="#ADD1B2" rx="11" ry="11" style="stroke:#A80036;stroke-width:1.0;"/><path d="M24.9688,187.6406 Q24.3906,187.9375 23.75,188.0859 Q23.1094,188.2344 22.4063,188.2344 Q19.9063,188.2344 18.5859,186.5859 Q17.2656,184.9375 17.2656,181.8125 Q17.2656,178.6875 18.5859,177.0313 Q19.9063,175.375 22.4063,175.375 Q23.1094,175.375 23.7578,175.5313 Q24.4063,175.6875 24.9688,175.9844 L24.9688,178.7031 Q24.3438,178.125 23.75,177.8516 Q23.1563,177.5781 22.5313,177.5781 Q21.1875,177.5781 20.5,178.6484 Q19.8125,179.7188 19.8125,181.8125 Q19.8125,183.9063 20.5,184.9766 Q21.1875,186.0469 22.5313,186.0469 Q23.1563,186.0469 23.75,185.7734 Q24.3438,185.5 24.9688,184.9219 L24.9688,187.6406 Z " fill="#000000"/><text fill="#000000" font-family="sans-serif" font-size="12" lengthAdjust="spacing" textLength="8" x="36" y="186.1543">A</text><line style="stroke:#A80036;stroke-width:1.5;" x1="8" x2="46" y1="198" y2="198"/><line style="stroke:#A80036;stroke-width:1.5;" x1="8" x2="46" y1="206" y2="206"/><rect codeLine="4" fill="#FEFECE" filter="url(#f4x3mza3xt9tq)" height="48" id="B" style="stroke:#A80036;stroke-width:1.5;" width="40" x="82" y="166"/><ellipse cx="97" cy="182" fill="#ADD1B2" rx="11" ry="11" style="stroke:#A80036;stroke-width:1.0;"/><path d="M99.9688,187.6406 Q99.3906,187.9375 98.75,188.0859 Q98.1094,188.2344 97.4063,188.2344 Q94.9063,188.2344 93.5859,186.5859 Q92.2656,184.9375 92.2656,181.8125 Q92.2656,178.6875 93.5859,177.0313 Q94.9063,175.375 97.4063,175.375 Q98.1094,175.375 98.7578,175.5313 Q99.4063,175.6875 99.9688,175.9844 L99.9688,178.7031 Q99.3438,178.125 98.75,177.8516 Q98.1563,177.5781 97.5313,177.5781 Q96.1875,177.5781 95.5,178.6484 Q94.8125,179.7188 94.8125,181.8125 Q94.8125,183.9063 95.5,184.9766 Q96.1875,186.0469 97.5313,186.0469 Q98.1563,186.0469 98.75,185.7734 Q99.3438,185.5 99.9688,184.9219 L99.9688,187.6406 Z " fill="#000000"/><text fill="#000000" font-family="sans-serif" font-size="12" lengthAdjust="spacing" textLength="8" x="111" y="186.1543">B</text><line style="stroke:#A80036;stroke-width:1.5;" x1="83" x2="121" y1="198" y2="198"/><line style="stroke:#A80036;stroke-width:1.5;" x1="83" x2="121" y1="206" y2="206"/><rect codeLine="5" fill="#FEFECE" filter="url(#f4x3mza3xt9tq)" height="48" id="C" style="stroke:#A80036;stroke-width:1.5;" width="40" x="157" y="166"/><ellipse cx="172" cy="182" fill="#ADD1B2" rx="11" ry="11" style="stroke:#A80036;stroke-width:1.0;"/><path d="M174.9688,187.6406 Q174.3906,187.9375 173.75,188.0859 Q173.1094,188.2344 172.4063,188.2344 Q169.9063,188.2344 168.5859,186.5859 Q167.2656,184.9375 167.2656,181.8125 Q167.2656,178.6875 168.5859,177.0313 Q169.9063,175.375 172.4063,175.375 Q173.1094,175.375 173.7578,175.5313 Q174.4063,175.6875 174.9688,175.9844 L174.9688,178.7031 Q174.3438,178.125 173.75,177.8516 Q173.1563,177.5781 172.5313,177.5781 Q171.1875,177.5781 170.5,178.6484 Q169.8125,179.7188 169.8125,181.8125 Q169.8125,183.9063 170.5,184.9766 Q171.1875,186.0469 172.5313,186.0469 Q173.1563,186.0469 173.75,185.7734 Q174.3438,185.5 174.9688,184.9219 L174.9688,187.6406 Z " fill="#000000"/><text fill="#000000" font-family="sans-serif" font-size="12" lengthAdjust="spacing" textLength="8" x="186" y="186.1543">C</text><line style="stroke:#A80036;stroke-width:1.5;" x1="158" x2="196" y1="198" y2="198"/><line style="stroke:#A80036;stroke-width:1.5;" x1="158" x2="196" y1="206" y2="206"/><rect codeLine="6" fill="#FEFECE" filter="url(#f4x3mza3xt9tq)" height="48" id="D" style="stroke:#A80036;stroke-width:1.5;" width="41" x="232.5" y="166"/><ellipse cx="247.5" cy="182" fill="#ADD1B2" rx="11" ry="11" style="stroke:#A80036;stroke-width:1.0;"/><path d="M250.4688,187.6406 Q249.8906,187.9375 249.25,188.0859 Q248.6094,188.2344 247.9063,188.2344 Q245.4063,188.2344 244.0859,186.5859 Q242.7656,184.9375 242.7656,181.8125 Q242.7656,178.6875 244.0859,177.0313 Q245.4063,175.375 247.9063,175.375 Q248.6094,175.375 249.2578,175.5313 Q249.9063,175.6875 250.4688,175.9844 L250.4688,178.7031 Q249.8438,178.125 249.25,177.8516 Q248.6563,177.5781 248.0313,177.5781 Q246.6875,177.5781 246,178.6484 Q245.3125,179.7188 245.3125,181.8125 Q245.3125,183.9063 246,184.9766 Q246.6875,186.0469 248.0313,186.0469 Q248.6563,186.0469 249.25,185.7734 Q249.8438,185.5 250.4688,184.9219 L250.4688,187.6406 Z " fill="#000000"/><text fill="#000000" font-family="sans-serif" font-size="12" lengthAdjust="spacing" textLength="9" x="261.5" y="186.1543">D</text><line style="stroke:#A80036;stroke-width:1.5;" x1="233.5" x2="272.5" y1="198" y2="198"/><line style="stroke:#A80036;stroke-width:1.5;" x1="233.5" x2="272.5" y1="206" y2="206"/><rect codeLine="7" fill="#FEFECE" filter="url(#f4x3mza3xt9tq)" height="99.2188" id="Interface1" style="stroke:#A80036;stroke-width:1.5;" width="108" x="85" y="7"/><ellipse cx="105.4" cy="23" fill="#B4A7E5" rx="11" ry="11" style="stroke:#A80036;stroke-width:1.0;"/><path d="M101.3219,18.7656 L101.3219,16.6094 L108.7125,16.6094 L108.7125,18.7656 L106.2438,18.7656 L106.2438,26.8438 L108.7125,26.8438 L108.7125,29 L101.3219,29 L101.3219,26.8438 L103.7906,26.8438 L103.7906,18.7656 L101.3219,18.7656 Z " fill="#000000"/><text fill="#000000" font-family="sans-serif" font-size="12" font-style="italic" lengthAdjust="spacing" textLength="64" x="120.6" y="27.1543">Interface1</text><line style="stroke:#A80036;stroke-width:1.5;" x1="86" x2="192" y1="39" y2="39"/><line style="stroke:#A80036;stroke-width:1.5;" x1="86" x2="192" y1="47" y2="47"/><text fill="#000000" font-family="sans-serif" font-size="11" lengthAdjust="spacing" textLength="96" x="91" y="61.2104">void operation1()</text><text fill="#000000" font-family="sans-serif" font-size="11" lengthAdjust="spacing" textLength="96" x="91" y="74.0151">void operation2()</text><text fill="#000000" font-family="sans-serif" font-size="11" lengthAdjust="spacing" textLength="96" x="91" y="86.8198">void operation3()</text><text fill="#000000" font-family="sans-serif" font-size="11" lengthAdjust="spacing" textLength="96" x="91" y="99.6245">void operation4()</text><path codeLine="14" d="M119.8312,125.6631 C115.8453,140.0445 111.9009,154.2764 108.7393,165.6838 " fill="none" id="Interface1-backto-B" style="stroke:#A80036;stroke-width:1.0;stroke-dasharray:7.0,7.0;"/><polygon fill="none" points="113.1351,123.6143,125.2226,106.2105,126.6265,127.3536,113.1351,123.6143" style="stroke:#A80036;stroke-width:1.0;"/><path codeLine="15" d="M194.7098,121.7391 C208.1118,137.4336 221.6089,153.2394 232.2356,165.6838 " fill="none" id="Interface1-backto-D" style="stroke:#A80036;stroke-width:1.0;stroke-dasharray:7.0,7.0;"/><polygon fill="none" points="189.1138,125.9654,181.4494,106.2105,199.7603,116.874,189.1138,125.9654" style="stroke:#A80036;stroke-width:1.0;"/><path codeLine="17" d="M94.056,110.0716 C77.7642,129.4909 60.1722,150.46 47.0961,166.0462 " fill="none" id="Interface1-backto-A" style="stroke:#A80036;stroke-width:1.0;stroke-dasharray:7.0,7.0;"/><polygon fill="#A80036" points="97.2953,106.2105,88.4464,110.5345,94.0817,110.041,94.5751,115.6763,97.2953,106.2105" style="stroke:#A80036;stroke-width:1.0;"/><path codeLine="18" d="M154.6532,111.492 C160.0232,130.3577 165.7615,150.5172 170.0785,165.6838 " fill="none" id="Interface1-backto-C" style="stroke:#A80036;stroke-width:1.0;stroke-dasharray:7.0,7.0;"/><polygon fill="#A80036" points="153.1498,106.2105,151.7668,115.9618,154.5188,111.0194,159.4611,113.7714,153.1498,106.2105" style="stroke:#A80036;stroke-width:1.0;"/></g></svg>