<?xml version="1.0" encoding="UTF-8" standalone="no"?><svg xmlns="http://www.w3.org/2000/svg" xmlns:xlink="http://www.w3.org/1999/xlink" contentScriptType="application/ecmascript" contentStyleType="text/css" height="228px" preserveAspectRatio="none" style="width:151px;height:228px;" version="1.1" viewBox="0 0 151 228" width="151px" zoomAndPan="magnify"><defs><filter height="300%" id="f1o4ty1wkxr1tn" width="300%" x="-1" y="-1"><feGaussianBlur result="blurOut" stdDeviation="2.0"/><feColorMatrix in="blurOut" result="blurOut2" type="matrix" values="0 0 0 0 0 0 0 0 0 0 0 0 0 0 0 0 0 0 .4 0"/><feOffset dx="4.0" dy="4.0" in="blurOut2" result="blurOut3"/><feBlend in="SourceGraphic" in2="blurOut3" mode="normal"/></filter></defs><g><rect codeLine="1" fill="#FEFECE" filter="url(#f1o4ty1wkxr1tn)" height="60.8047" id="B" style="stroke:#A80036;stroke-width:1.5;" width="130" x="7" y="7"/><ellipse cx="63.75" cy="23" fill="#ADD1B2" rx="11" ry="11" style="stroke:#A80036;stroke-width:1.0;"/><path d="M66.7188,28.6406 Q66.1406,28.9375 65.5,29.0859 Q64.8594,29.2344 64.1563,29.2344 Q61.6563,29.2344 60.3359,27.5859 Q59.0156,25.9375 59.0156,22.8125 Q59.0156,19.6875 60.3359,18.0313 Q61.6563,16.375 64.1563,16.375 Q64.8594,16.375 65.5078,16.5313 Q66.1563,16.6875 66.7188,16.9844 L66.7188,19.7031 Q66.0938,19.125 65.5,18.8516 Q64.9063,18.5781 64.2813,18.5781 Q62.9375,18.5781 62.25,19.6484 Q61.5625,20.7188 61.5625,22.8125 Q61.5625,24.9063 62.25,25.9766 Q62.9375,27.0469 64.2813,27.0469 Q64.9063,27.0469 65.5,26.7734 Q66.0938,26.5 66.7188,25.9219 L66.7188,28.6406 Z " fill="#000000"/><text fill="#000000" font-family="sans-serif" font-size="12" lengthAdjust="spacing" textLength="8" x="84.25" y="27.1543">B</text><line style="stroke:#A80036;stroke-width:1.5;" x1="8" x2="136" y1="39" y2="39"/><line style="stroke:#A80036;stroke-width:1.5;" x1="8" x2="136" y1="47" y2="47"/><text fill="#000000" font-family="sans-serif" font-size="11" lengthAdjust="spacing" textLength="118" x="13" y="61.2104">void operation1(a: A)</text><rect codeLine="4" fill="#FEFECE" filter="url(#f1o4ty1wkxr1tn)" height="86.4141" id="A" style="stroke:#A80036;stroke-width:1.5;" width="108" x="18" y="128"/><ellipse cx="63.75" cy="144" fill="#ADD1B2" rx="11" ry="11" style="stroke:#A80036;stroke-width:1.0;"/><path d="M66.7188,149.6406 Q66.1406,149.9375 65.5,150.0859 Q64.8594,150.2344 64.1563,150.2344 Q61.6563,150.2344 60.3359,148.5859 Q59.0156,146.9375 59.0156,143.8125 Q59.0156,140.6875 60.3359,139.0313 Q61.6563,137.375 64.1563,137.375 Q64.8594,137.375 65.5078,137.5313 Q66.1563,137.6875 66.7188,137.9844 L66.7188,140.7031 Q66.0938,140.125 65.5,139.8516 Q64.9063,139.5781 64.2813,139.5781 Q62.9375,139.5781 62.25,140.6484 Q61.5625,141.7188 61.5625,143.8125 Q61.5625,145.9063 62.25,146.9766 Q62.9375,148.0469 64.2813,148.0469 Q64.9063,148.0469 65.5,147.7734 Q66.0938,147.5 66.7188,146.9219 L66.7188,149.6406 Z " fill="#000000"/><text fill="#000000" font-family="sans-serif" font-size="12" lengthAdjust="spacing" textLength="8" x="84.25" y="148.1543">A</text><line style="stroke:#A80036;stroke-width:1.5;" x1="19" x2="125" y1="160" y2="160"/><line style="stroke:#A80036;stroke-width:1.5;" x1="19" x2="125" y1="168" y2="168"/><text fill="#000000" font-family="sans-serif" font-size="11" lengthAdjust="spacing" textLength="96" x="24" y="182.2104">void operation1()</text><text fill="#000000" font-family="sans-serif" font-size="11" lengthAdjust="spacing" textLength="96" x="24" y="195.0151">void operation2()</text><text fill="#000000" font-family="sans-serif" font-size="11" lengthAdjust="spacing" textLength="96" x="24" y="207.8198">void operation3()</text><path codeLine="9" d="M72,68.1276 C72,84.3114 72,104.5493 72,122.7833 " fill="none" id="B-to-A" style="stroke:#A80036;stroke-width:1.0;stroke-dasharray:7.0,7.0;"/><polygon fill="#A80036" points="72,127.8681,76,118.8681,72,122.8681,68,118.8681,72,127.8681" style="stroke:#A80036;stroke-width:1.0;"/></g></svg>