<?xml version="1.0" encoding="UTF-8" standalone="no"?><svg xmlns="http://www.w3.org/2000/svg" xmlns:xlink="http://www.w3.org/1999/xlink" contentScriptType="application/ecmascript" contentStyleType="text/css" height="202px" preserveAspectRatio="none" style="width:415px;height:202px;" version="1.1" viewBox="0 0 415 202" width="415px" zoomAndPan="magnify"><defs><filter height="300%" id="fvl2unsb7zeaj" width="300%" x="-1" y="-1"><feGaussianBlur result="blurOut" stdDeviation="2.0"/><feColorMatrix in="blurOut" result="blurOut2" type="matrix" values="0 0 0 0 0 0 0 0 0 0 0 0 0 0 0 0 0 0 .4 0"/><feOffset dx="4.0" dy="4.0" in="blurOut2" result="blurOut3"/><feBlend in="SourceGraphic" in2="blurOut3" mode="normal"/></filter></defs><g><rect codeLine="2" fill="#FEFECE" filter="url(#fvl2unsb7zeaj)" height="48" id="B" style="stroke:#A80036;stroke-width:1.5;" width="40" x="71" y="7"/><ellipse cx="86" cy="23" fill="#ADD1B2" rx="11" ry="11" style="stroke:#A80036;stroke-width:1.0;"/><path d="M88.9688,28.6406 Q88.3906,28.9375 87.75,29.0859 Q87.1094,29.2344 86.4063,29.2344 Q83.9063,29.2344 82.5859,27.5859 Q81.2656,25.9375 81.2656,22.8125 Q81.2656,19.6875 82.5859,18.0313 Q83.9063,16.375 86.4063,16.375 Q87.1094,16.375 87.7578,16.5313 Q88.4063,16.6875 88.9688,16.9844 L88.9688,19.7031 Q88.3438,19.125 87.75,18.8516 Q87.1563,18.5781 86.5313,18.5781 Q85.1875,18.5781 84.5,19.6484 Q83.8125,20.7188 83.8125,22.8125 Q83.8125,24.9063 84.5,25.9766 Q85.1875,27.0469 86.5313,27.0469 Q87.1563,27.0469 87.75,26.7734 Q88.3438,26.5 88.9688,25.9219 L88.9688,28.6406 Z " fill="#000000"/><text fill="#000000" font-family="sans-serif" font-size="12" lengthAdjust="spacing" textLength="8" x="100" y="27.1543">B</text><line style="stroke:#A80036;stroke-width:1.5;" x1="72" x2="110" y1="39" y2="39"/><line style="stroke:#A80036;stroke-width:1.5;" x1="72" x2="110" y1="47" y2="47"/><rect codeLine="3" fill="#FEFECE" filter="url(#fvl2unsb7zeaj)" height="48" id="A" style="stroke:#A80036;stroke-width:1.5;" width="40" x="161" y="7"/><ellipse cx="176" cy="23" fill="#ADD1B2" rx="11" ry="11" style="stroke:#A80036;stroke-width:1.0;"/><path d="M178.9688,28.6406 Q178.3906,28.9375 177.75,29.0859 Q177.1094,29.2344 176.4063,29.2344 Q173.9063,29.2344 172.5859,27.5859 Q171.2656,25.9375 171.2656,22.8125 Q171.2656,19.6875 172.5859,18.0313 Q173.9063,16.375 176.4063,16.375 Q177.1094,16.375 177.7578,16.5313 Q178.4063,16.6875 178.9688,16.9844 L178.9688,19.7031 Q178.3438,19.125 177.75,18.8516 Q177.1563,18.5781 176.5313,18.5781 Q175.1875,18.5781 174.5,19.6484 Q173.8125,20.7188 173.8125,22.8125 Q173.8125,24.9063 174.5,25.9766 Q175.1875,27.0469 176.5313,27.0469 Q177.1563,27.0469 177.75,26.7734 Q178.3438,26.5 178.9688,25.9219 L178.9688,28.6406 Z " fill="#000000"/><text fill="#000000" font-family="sans-serif" font-size="12" lengthAdjust="spacing" textLength="8" x="190" y="27.1543">A</text><line style="stroke:#A80036;stroke-width:1.5;" x1="162" x2="200" y1="39" y2="39"/><line style="stroke:#A80036;stroke-width:1.5;" x1="162" x2="200" y1="47" y2="47"/><rect codeLine="4" fill="#FEFECE" filter="url(#fvl2unsb7zeaj)" height="48" id="C" style="stroke:#A80036;stroke-width:1.5;" width="40" x="243" y="7"/><ellipse cx="258" cy="23" fill="#ADD1B2" rx="11" ry="11" style="stroke:#A80036;stroke-width:1.0;"/><path d="M260.9688,28.6406 Q260.3906,28.9375 259.75,29.0859 Q259.1094,29.2344 258.4063,29.2344 Q255.9063,29.2344 254.5859,27.5859 Q253.2656,25.9375 253.2656,22.8125 Q253.2656,19.6875 254.5859,18.0313 Q255.9063,16.375 258.4063,16.375 Q259.1094,16.375 259.7578,16.5313 Q260.4063,16.6875 260.9688,16.9844 L260.9688,19.7031 Q260.3438,19.125 259.75,18.8516 Q259.1563,18.5781 258.5313,18.5781 Q257.1875,18.5781 256.5,19.6484 Q255.8125,20.7188 255.8125,22.8125 Q255.8125,24.9063 256.5,25.9766 Q257.1875,27.0469 258.5313,27.0469 Q259.1563,27.0469 259.75,26.7734 Q260.3438,26.5 260.9688,25.9219 L260.9688,28.6406 Z " fill="#000000"/><text fill="#000000" font-family="sans-serif" font-size="12" lengthAdjust="spacing" textLength="8" x="272" y="27.1543">C</text><line style="stroke:#A80036;stroke-width:1.5;" x1="244" x2="282" y1="39" y2="39"/><line style="stroke:#A80036;stroke-width:1.5;" x1="244" x2="282" y1="47" y2="47"/><rect codeLine="5" fill="#FEFECE" filter="url(#fvl2unsb7zeaj)" height="48" id="D" style="stroke:#A80036;stroke-width:1.5;" width="41" x="322.5" y="7"/><ellipse cx="337.5" cy="23" fill="#ADD1B2" rx="11" ry="11" style="stroke:#A80036;stroke-width:1.0;"/><path d="M340.4688,28.6406 Q339.8906,28.9375 339.25,29.0859 Q338.6094,29.2344 337.9063,29.2344 Q335.4063,29.2344 334.0859,27.5859 Q332.7656,25.9375 332.7656,22.8125 Q332.7656,19.6875 334.0859,18.0313 Q335.4063,16.375 337.9063,16.375 Q338.6094,16.375 339.2578,16.5313 Q339.9063,16.6875 340.4688,16.9844 L340.4688,19.7031 Q339.8438,19.125 339.25,18.8516 Q338.6563,18.5781 338.0313,18.5781 Q336.6875,18.5781 336,19.6484 Q335.3125,20.7188 335.3125,22.8125 Q335.3125,24.9063 336,25.9766 Q336.6875,27.0469 338.0313,27.0469 Q338.6563,27.0469 339.25,26.7734 Q339.8438,26.5 340.4688,25.9219 L340.4688,28.6406 Z " fill="#000000"/><text fill="#000000" font-family="sans-serif" font-size="12" lengthAdjust="spacing" textLength="9" x="351.5" y="27.1543">D</text><line style="stroke:#A80036;stroke-width:1.5;" x1="323.5" x2="362.5" y1="39" y2="39"/><line style="stroke:#A80036;stroke-width:1.5;" x1="323.5" x2="362.5" y1="47" y2="47"/><rect codeLine="7" fill="#FEFECE" filter="url(#fvl2unsb7zeaj)" height="60.8047" id="Interface1" style="stroke:#A80036;stroke-width:1.5;" width="108" x="150" y="121.5"/><ellipse cx="170.4" cy="137.5" fill="#B4A7E5" rx="11" ry="11" style="stroke:#A80036;stroke-width:1.0;"/><path d="M166.3219,133.2656 L166.3219,131.1094 L173.7125,131.1094 L173.7125,133.2656 L171.2438,133.2656 L171.2438,141.3438 L173.7125,141.3438 L173.7125,143.5 L166.3219,143.5 L166.3219,141.3438 L168.7906,141.3438 L168.7906,133.2656 L166.3219,133.2656 Z " fill="#000000"/><text fill="#000000" font-family="sans-serif" font-size="12" font-style="italic" lengthAdjust="spacing" textLength="64" x="185.6" y="141.6543">Interface1</text><line style="stroke:#A80036;stroke-width:1.5;" x1="151" x2="257" y1="153.5" y2="153.5"/><line style="stroke:#A80036;stroke-width:1.5;" x1="151" x2="257" y1="161.5" y2="161.5"/><text fill="#000000" font-family="sans-serif" font-size="11" lengthAdjust="spacing" textLength="96" x="156" y="175.7104">void operation1()</text><rect codeLine="11" fill="#FEFECE" filter="url(#fvl2unsb7zeaj)" height="73.6094" id="Interface2" style="stroke:#A80036;stroke-width:1.5;" width="108" x="7" y="115"/><ellipse cx="27.4" cy="131" fill="#B4A7E5" rx="11" ry="11" style="stroke:#A80036;stroke-width:1.0;"/><path d="M23.3219,126.7656 L23.3219,124.6094 L30.7125,124.6094 L30.7125,126.7656 L28.2438,126.7656 L28.2438,134.8438 L30.7125,134.8438 L30.7125,137 L23.3219,137 L23.3219,134.8438 L25.7906,134.8438 L25.7906,126.7656 L23.3219,126.7656 Z " fill="#000000"/><text fill="#000000" font-family="sans-serif" font-size="12" font-style="italic" lengthAdjust="spacing" textLength="64" x="42.6" y="135.1543">Interface2</text><line style="stroke:#A80036;stroke-width:1.5;" x1="8" x2="114" y1="147" y2="147"/><line style="stroke:#A80036;stroke-width:1.5;" x1="8" x2="114" y1="155" y2="155"/><text fill="#000000" font-family="sans-serif" font-size="11" lengthAdjust="spacing" textLength="96" x="13" y="169.2104">void operation2()</text><text fill="#000000" font-family="sans-serif" font-size="11" lengthAdjust="spacing" textLength="96" x="13" y="182.0151">void operation3()</text><rect codeLine="16" fill="#FEFECE" filter="url(#fvl2unsb7zeaj)" height="73.6094" id="Interface3" style="stroke:#A80036;stroke-width:1.5;" width="108" x="293" y="115"/><ellipse cx="313.4" cy="131" fill="#B4A7E5" rx="11" ry="11" style="stroke:#A80036;stroke-width:1.0;"/><path d="M309.3219,126.7656 L309.3219,124.6094 L316.7125,124.6094 L316.7125,126.7656 L314.2438,126.7656 L314.2438,134.8438 L316.7125,134.8438 L316.7125,137 L309.3219,137 L309.3219,134.8438 L311.7906,134.8438 L311.7906,126.7656 L309.3219,126.7656 Z " fill="#000000"/><text fill="#000000" font-family="sans-serif" font-size="12" font-style="italic" lengthAdjust="spacing" textLength="64" x="328.6" y="135.1543">Interface3</text><line style="stroke:#A80036;stroke-width:1.5;" x1="294" x2="400" y1="147" y2="147"/><line style="stroke:#A80036;stroke-width:1.5;" x1="294" x2="400" y1="155" y2="155"/><text fill="#000000" font-family="sans-serif" font-size="11" lengthAdjust="spacing" textLength="96" x="299" y="169.2104">void operation4()</text><text fill="#000000" font-family="sans-serif" font-size="11" lengthAdjust="spacing" textLength="96" x="299" y="182.0151">void operation5()</text><path codeLine="21" d="M185.5991,55.1953 C188.9346,72.743 193.4992,96.7568 197.2476,116.4764 " fill="none" id="A-to-Interface1" style="stroke:#A80036;stroke-width:1.0;stroke-dasharray:7.0,7.0;"/><polygon fill="#A80036" points="198.1817,121.3909,200.4307,111.8023,197.248,116.4789,192.5714,113.2962,198.1817,121.3909" style="stroke:#A80036;stroke-width:1.0;"/><path codeLine="22" d="M160.9147,51.2527 C144.9017,67.3991 121.947,90.5451 102.0769,110.5808 " fill="none" id="A-to-Interface2" style="stroke:#A80036;stroke-width:1.0;stroke-dasharray:7.0,7.0;"/><polygon fill="#A80036" points="98.1469,114.5435,107.3245,110.9697,101.6677,110.9933,101.6441,105.3365,98.1469,114.5435" style="stroke:#A80036;stroke-width:1.0;"/><path codeLine="23" d="M251.2023,55.1953 C242.6097,72.8174 230.8375,96.9604 221.1993,116.7269 " fill="none" id="C-to-Interface1" style="stroke:#A80036;stroke-width:1.0;stroke-dasharray:7.0,7.0;"/><polygon fill="#A80036" points="218.9251,121.3909,226.465,115.0545,221.1165,116.8967,219.2744,111.5482,218.9251,121.3909" style="stroke:#A80036;stroke-width:1.0;"/><path codeLine="24" d="M279.7968,55.1953 C290.8355,71.0964 305.5603,92.3071 318.4128,110.8208 " fill="none" id="C-to-Interface3" style="stroke:#A80036;stroke-width:1.0;stroke-dasharray:7.0,7.0;"/><polygon fill="#A80036" points="321.2943,114.9716,319.4476,105.2974,318.4429,110.8644,312.876,109.8597,321.2943,114.9716" style="stroke:#A80036;stroke-width:1.0;"/><path codeLine="26" d="M111.2021,52.6324 C125.188,67.6084 144.3198,88.0947 161.5794,106.5762 " fill="none" id="B-to-Interface1" style="stroke:#A80036;stroke-width:1.0;stroke-dasharray:7.0,7.0;"/><polygon fill="none" points="166.9483,102.0693,175.483,121.4641,156.7164,111.6248,166.9483,102.0693" style="stroke:#A80036;stroke-width:1.0;"/><path codeLine="27" d="M85.0012,55.1953 C82.1189,66.8205 78.533,81.2836 75.0192,95.456 " fill="none" id="B-to-Interface2" style="stroke:#A80036;stroke-width:1.0;stroke-dasharray:7.0,7.0;"/><polygon fill="none" points="81.7879,97.2439,70.1806,114.9716,68.1993,93.8748,81.7879,97.2439" style="stroke:#A80036;stroke-width:1.0;"/><path codeLine="28" d="M322.4901,48.854 C304.6106,64.4181 277.93,87.6437 254.411,108.1171 " fill="none" id="D-to-Interface1" style="stroke:#A80036;stroke-width:1.0;stroke-dasharray:7.0,7.0;"/><polygon fill="none" points="258.841,113.5414,239.1598,121.3933,249.6488,102.9818,258.841,113.5414" style="stroke:#A80036;stroke-width:1.0;"/><path codeLine="29" d="M343.7998,55.1953 C344.1797,66.6869 344.6513,80.9515 345.1146,94.9672 " fill="none" id="D-to-Interface3" style="stroke:#A80036;stroke-width:1.0;stroke-dasharray:7.0,7.0;"/><polygon fill="none" points="352.1112,94.7512,345.7759,114.9716,338.1188,95.2138,352.1112,94.7512" style="stroke:#A80036;stroke-width:1.0;"/></g></svg>