<?xml version="1.0" encoding="UTF-8" standalone="no"?><svg xmlns="http://www.w3.org/2000/svg" xmlns:xlink="http://www.w3.org/1999/xlink" contentScriptType="application/ecmascript" contentStyleType="text/css" height="107px" preserveAspectRatio="none" style="width:258px;height:107px;" version="1.1" viewBox="0 0 258 107" width="258px" zoomAndPan="magnify"><defs><filter height="300%" id="f1l7cb01u0qtl8" width="300%" x="-1" y="-1"><feGaussianBlur result="blurOut" stdDeviation="2.0"/><feColorMatrix in="blurOut" result="blurOut2" type="matrix" values="0 0 0 0 0 0 0 0 0 0 0 0 0 0 0 0 0 0 .4 0"/><feOffset dx="4.0" dy="4.0" in="blurOut2" result="blurOut3"/><feBlend in="SourceGraphic" in2="blurOut3" mode="normal"/></filter></defs><g><rect codeLine="1" fill="#FEFECE" filter="url(#f1l7cb01u0qtl8)" height="73.6094" id="B" style="stroke:#A80036;stroke-width:1.5;" width="94" x="150" y="13"/><ellipse cx="189.3" cy="29" fill="#ADD1B2" rx="11" ry="11" style="stroke:#A80036;stroke-width:1.0;"/><path d="M192.2688,34.6406 Q191.6906,34.9375 191.05,35.0859 Q190.4094,35.2344 189.7063,35.2344 Q187.2063,35.2344 185.8859,33.5859 Q184.5656,31.9375 184.5656,28.8125 Q184.5656,25.6875 185.8859,24.0313 Q187.2063,22.375 189.7063,22.375 Q190.4094,22.375 191.0578,22.5313 Q191.7063,22.6875 192.2688,22.9844 L192.2688,25.7031 Q191.6438,25.125 191.05,24.8516 Q190.4563,24.5781 189.8313,24.5781 Q188.4875,24.5781 187.8,25.6484 Q187.1125,26.7188 187.1125,28.8125 Q187.1125,30.9063 187.8,31.9766 Q188.4875,33.0469 189.8313,33.0469 Q190.4563,33.0469 191.05,32.7734 Q191.6438,32.5 192.2688,31.9219 L192.2688,34.6406 Z " fill="#000000"/><text fill="#000000" font-family="sans-serif" font-size="12" lengthAdjust="spacing" textLength="8" x="208.7" y="33.1543">B</text><line style="stroke:#A80036;stroke-width:1.5;" x1="151" x2="243" y1="45" y2="45"/><text fill="#000000" font-family="sans-serif" font-size="11" lengthAdjust="spacing" textLength="22" x="156" y="59.2104">a: A</text><line style="stroke:#A80036;stroke-width:1.5;" x1="151" x2="243" y1="65.8047" y2="65.8047"/><text fill="#000000" font-family="sans-serif" font-size="11" lengthAdjust="spacing" textLength="82" x="156" y="80.0151">void setA(a: A)</text><rect codeLine="5" fill="#FEFECE" filter="url(#f1l7cb01u0qtl8)" height="86.4141" id="A" style="stroke:#A80036;stroke-width:1.5;" width="108" x="7" y="7"/><ellipse cx="52.75" cy="23" fill="#ADD1B2" rx="11" ry="11" style="stroke:#A80036;stroke-width:1.0;"/><path d="M55.7188,28.6406 Q55.1406,28.9375 54.5,29.0859 Q53.8594,29.2344 53.1563,29.2344 Q50.6563,29.2344 49.3359,27.5859 Q48.0156,25.9375 48.0156,22.8125 Q48.0156,19.6875 49.3359,18.0313 Q50.6563,16.375 53.1563,16.375 Q53.8594,16.375 54.5078,16.5313 Q55.1563,16.6875 55.7188,16.9844 L55.7188,19.7031 Q55.0938,19.125 54.5,18.8516 Q53.9063,18.5781 53.2813,18.5781 Q51.9375,18.5781 51.25,19.6484 Q50.5625,20.7188 50.5625,22.8125 Q50.5625,24.9063 51.25,25.9766 Q51.9375,27.0469 53.2813,27.0469 Q53.9063,27.0469 54.5,26.7734 Q55.0938,26.5 55.7188,25.9219 L55.7188,28.6406 Z " fill="#000000"/><text fill="#000000" font-family="sans-serif" font-size="12" lengthAdjust="spacing" textLength="8" x="73.25" y="27.1543">A</text><line style="stroke:#A80036;stroke-width:1.5;" x1="8" x2="114" y1="39" y2="39"/><line style="stroke:#A80036;stroke-width:1.5;" x1="8" x2="114" y1="47" y2="47"/><text fill="#000000" font-family="sans-serif" font-size="11" lengthAdjust="spacing" textLength="96" x="13" y="61.2104">operation1():void</text><text fill="#000000" font-family="sans-serif" font-size="11" lengthAdjust="spacing" textLength="96" x="13" y="74.0151">operation2():void</text><text fill="#000000" font-family="sans-serif" font-size="11" lengthAdjust="spacing" textLength="96" x="13" y="86.8198">operation3():void</text><path codeLine="10" d="M115.1875,50 C122.2882,50 129.3888,50 136.4895,50 " fill="none" id="A-to-B" style="stroke:#A80036;stroke-width:1.0;"/><polygon fill="#FFFFFF" points="149.7021,50,143.7021,46,137.7021,50,143.7021,54,149.7021,50" style="stroke:#A80036;stroke-width:1.0;"/></g></svg>